<?xml version="1.0" encoding="UTF-8" standalone="no"?>
<!-- Created with Inkscape (http://www.inkscape.org/) -->

<svg
   width="185.57626mm"
   height="65.862267mm"
   viewBox="0 0 185.57626 65.862267"
   version="1.1"
   id="svg1"
   xml:space="preserve"
   xmlns="http://www.w3.org/2000/svg"
   xmlns:svg="http://www.w3.org/2000/svg"><defs
     id="defs1"><style
       id="style3135"
       type="text/css" /><style
       id="style3135-6"
       type="text/css" /></defs><g
     id="layer1"
     transform="translate(-12.211657,-111.45948)"><g
       id="g8"><path
         id="path6"
         style="fill:#000000;fill-rule:nonzero;stroke:none;stroke-width:1.31;-inkscape-stroke:none"
         d="M 12.212033,83.285385 C 24.583782,82.412051 36.955849,81.975387 49.327597,81.975387 H 89.39957 v 1.309998 H 49.327597 Z m 108.389247,0 v -1.309998 h 40.07198 c 12.37174,0 24.74329,0.436664 37.11504,1.309998 h -37.11504 z"
         transform="matrix(1,0,0,-1,-3.755e-4,205.63864)" /><path
         id="path3255"
         d="m 104.00106,119.42982 c 0.2542,0.008 0.41357,-0.0224 0.51222,0.0228 0.0987,0.0452 0.1366,0.15822 0.0911,0.45266 -0.0455,0.29405 -0.17454,0.76152 -0.37184,1.31964 -0.1935,0.55057 -0.46669,1.19179 -0.6564,1.57616 -0.18706,0.38474 -0.29255,0.52816 -0.4132,0.59608 -0.12824,0.0679 -0.27167,0.0527 -0.46024,-0.11307 -0.18857,-0.1586 -0.4223,-0.47543 -0.69397,-0.82222 -0.2713,-0.3468 -0.58052,-0.72395 -0.90493,-1.00321 -0.32443,-0.27888 -0.64845,-0.45228 -1.09352,-0.52019 -0.437485,-0.0679 -0.988035,-0.0228 -1.501025,0.14304 -0.51261,0.17377 -0.98803,0.46782 -1.47067,0.92769 -0.48262,0.45267 -0.97284,1.06355 -1.43271,1.50861 -0.46025,0.4447 -0.89014,0.71637 -1.35001,0.8522 -0.46025,0.12825 -0.95806,0.12065 -1.39554,-0.0603 -0.43709,-0.1734 -0.82183,-0.52057 -1.04836,-0.93529 -0.22614,-0.41471 -0.29405,-0.89735 -0.25611,-1.32725 0.0376,-0.43747 0.18858,-0.82222 0.32404,-1.13903 0.13583,-0.32404 0.26407,-0.58052 0.19616,-0.70878 -0.0679,-0.13583 -0.33162,-0.14341 -0.66363,0.03 -0.33958,0.1734 -0.74671,0.53577 -1.06353,0.97286 -0.31683,0.43749 -0.54296,0.95805 -0.64085,1.52379 -0.0983,0.56535 -0.0679,1.17622 0.13583,1.81745 0.20338,0.64124 0.58053,1.30486 1.00283,1.82506 0.41471,0.52058 0.87496,0.89013 1.38794,1.1766 0.50503,0.28647 1.06316,0.49023 1.65925,0.59571 0.5957,0.10586 1.23655,0.12066 1.83263,0 0.59571,-0.12066 1.14625,-0.36957 1.67404,-0.76911 0.52817,-0.39991 1.03357,-0.95046 1.44828,-1.35 0.41471,-0.39992 0.73153,-0.64123 1.12387,-0.76948 0.391945,-0.12787 0.852195,-0.14304 1.251735,-0.0148 0.39233,0.12825 0.71636,0.38436 0.94288,0.83702 0.22614,0.45266 0.3468,1.08592 0.33921,1.80266 0,0.71636 -0.12825,1.50823 -0.42231,2.549 -0.29405,1.04078 -0.7543,2.33045 -1.4479,3.60533 -0.11307,0.21096 -0.24131,0.4223 -0.36956,0.63326 -0.528165,-0.70877 -1.101105,-1.38757 -1.779895,-2.00604 -0.73914,-0.6712 -1.6141,-1.2597 -2.80587,-1.88537 -1.19141,-0.62606 -2.71482,-1.28968 -4.23101,-1.76511 -1.51581,-0.46745 -3.01684,-0.7467 -4.36684,-0.71635 -1.35,0.03 -2.54899,0.35439 -3.64251,0.96526 -1.0935,0.61088 -2.07395,1.49343 -2.68483,2.34563 -0.61125,0.85219 -0.83739,1.67441 -0.87496,2.50384 -0.038,0.82981 0.12065,1.67442 0.36956,2.39837 0.24132,0.72395 0.57294,1.32761 0.83702,1.59132 0.26409,0.26409 0.46024,0.18099 0.51299,-0.03 0.0527,-0.21134 -0.0379,-0.55055 -0.11307,-0.93529 -0.0679,-0.37715 -0.12066,-0.79186 -0.0455,-1.26692 0.0755,-0.47542 0.27167,-1.0032 0.57331,-1.47065 0.30165,-0.46784 0.70877,-0.86738 1.22176,-1.20696 0.51299,-0.33922 1.12387,-0.6033 1.74992,-0.6033 0.62568,0 1.26692,0.27167 1.90056,0.65603 0.62568,0.38475 1.24414,0.88256 1.80228,1.23694 0.55055,0.34717 1.04077,0.54297 1.58411,0.59608 0.54297,0.0452 1.14626,-0.0531 1.60613,-0.2565 0.46782,-0.20375 0.80703,-0.51298 1.01838,-0.9201 0.21096,-0.40751 0.30923,-0.90532 0.25649,-1.32763 -0.0455,-0.41471 -0.24131,-0.75392 -0.33958,-1.01041 -0.0979,-0.2565 -0.11307,-0.43748 -0.0376,-0.52816 0.0755,-0.0979 0.24131,-0.10549 0.72395,0.0152 0.48264,0.12066 1.28209,0.37715 2.14187,0.87496 0.85979,0.49781 1.78749,1.22935 2.66244,2.1267 0.46747,0.47542 0.91253,0.99561 1.34243,1.55375 -0.50541,0.72395 -1.05596,1.42552 -1.6141,2.08914 -0.95009,1.13145 -1.91572,2.14187 -2.90376,3.09954 -0.98044,0.96565 -1.98326,1.87817 -3.06198,2.7076 -1.07834,0.82981 -2.22459,1.56893 -3.18264,2.1119 -0.95768,0.55055 -1.72716,0.90493 -2.42075,1.16143 -0.69398,0.25651 -1.31245,0.41624 -1.72717,0.45419 -0.41508,0.0379 -0.62605,-0.0379 -0.70915,-0.14419 -0.0827,-0.0986 -0.03,-0.2269 0.12067,-0.43066 0.15101,-0.21134 0.4075,-0.49781 0.60328,-0.90493 0.19617,-0.39992 0.32441,-0.92012 0.29444,-1.4407 -0.0304,-0.52778 -0.21134,-1.06315 -0.52817,-1.50063 -0.31682,-0.43748 -0.76909,-0.77708 -1.28967,-0.95806 -0.5202,-0.18857 -1.10869,-0.22614 -1.74954,-0.13583 -0.64124,0.0831 -1.3352,0.29443 -2.1119,0.59608 -0.7691,0.30164 -1.62129,0.70877 -2.23256,0.98045 -0.61088,0.27128 -0.98043,0.40712 -1.51581,0.39953 -0.53537,-0.008 -1.22935,-0.15063 -1.79507,-0.46746 -0.56535,-0.30923 -0.99525,-0.79186 -1.20659,-1.12386 -0.21134,-0.33921 -0.19616,-0.53538 -0.0527,-0.73912 0.14341,-0.20338 0.42988,-0.42231 0.91252,-0.65604 0.48263,-0.24131 1.1766,-0.51299 1.78748,-0.89013 0.61088,-0.38437 1.15385,-0.87459 1.50823,-1.38758 0.36197,-0.51299 0.54334,-1.03318 0.53575,-1.47067 -0.008,-0.43748 -0.20375,-0.77668 -0.64882,-0.98043 -0.44507,-0.20376 -1.14626,-0.26408 -1.81745,-0.0979 -0.67881,0.16581 -1.33483,0.55055 -1.9461,1.02559 -0.60329,0.47505 -1.15384,1.04836 -1.56855,1.59133 -0.41471,0.55055 -0.69397,1.07075 -0.8522,1.65924 -0.158216,0.58811 -0.188576,1.23693 -0.0907,1.91574 0.0983,0.67879 0.324406,1.39514 0.716736,2.14186 0.39195,0.74671 0.95009,1.53099 1.65165,2.11153 0.70877,0.58089 1.56097,0.94857 2.47388,1.14587 0.91252,0.19731 1.88537,0.22766 2.58656,0.26561 0.70155,0.0455 1.13903,0.10624 1.39553,0.16315 0.25649,0.0607 0.33921,0.129 0.36956,0.31113 0.0376,0.17454 0.03,0.4667 0.0827,0.75506 0.0455,0.28457 0.15101,0.57294 0.34717,0.77403 0.19578,0.2049 0.48264,0.31872 0.68601,0.41738 0.20375,0.0986 0.31682,0.16695 0.30202,0.28457 -0.0152,0.12141 -0.16618,0.29595 -0.53575,0.47049 -0.36957,0.17074 -0.97285,0.33769 -1.54617,0.45911 -0.57294,0.11383 -1.11589,0.18212 -1.9533,0.0986 -0.83702,-0.0835 -1.97605,-0.31112 -2.86581,-0.58052 -0.89014,-0.27318 -1.53099,-0.5957 -2.05878,-1.00549 -0.52817,-0.3984 -0.94288,-0.88027 -1.21455,-1.14586 -0.2713,-0.25423 -0.39195,-0.28457 -0.527776,-0.18972 -0.13584,0.0986 -0.27927,0.3263 -0.39234,0.65642 -0.11307,0.34148 -0.19616,0.7854 -0.18857,1.23693 0.008,0.45532 0.0983,0.91442 0.30924,1.31282 0.21134,0.40219 0.535746,0.75506 0.912516,0.95995 0.38474,0.20869 0.82222,0.26939 1.07872,0.32252 0.25648,0.0455 0.33161,0.0835 0.35438,0.15177 0.0228,0.0683 0,0.18212 -0.18858,0.34528 -0.18857,0.16694 -0.54295,0.3946 -0.90494,0.74748 -0.36196,0.35665 -0.72395,0.83853 -1.010786,1.32798 -0.27888,0.48947 -0.47505,0.97893 -0.53538,1.28248 -0.0603,0.29974 0.0152,0.40598 0.31683,0.48187 0.30165,0.0759 0.844606,0.12901 1.417926,0.11382 0.57331,-0.0152 1.1766,-0.0986 1.71197,-0.24282 0.53538,-0.14798 1.00321,-0.36806 1.22176,-0.38323 0.22614,-0.0152 0.20375,0.17454 0.11307,0.44393 -0.0903,0.27319 -0.2489,0.62606 -0.3468,0.9979 -0.0983,0.36804 -0.13583,0.75127 -0.0228,1.17623 0.11307,0.42116 0.37716,0.88785 0.74671,1.30143 0.36957,0.41737 0.85219,0.77783 1.32003,0.99031 0.45987,0.22006 0.90494,0.29216 1.09352,0.19731 0.18857,-0.0911 0.12824,-0.34908 0.0603,-0.76265 -0.0679,-0.41738 -0.15102,-0.99032 -0.13584,-1.63155 0.0152,-0.63743 0.12825,-1.33938 0.29405,-2.01856 0.1662,-0.67918 0.38474,-1.33559 0.70157,-2.02235 0.31682,-0.68676 0.72395,-1.41147 1.13867,-1.96164 0.41471,-0.55018 0.83739,-0.93339 1.20696,-1.20659 0.36955,-0.2618 0.68601,-0.41357 0.89735,-0.48187 0.21134,-0.0759 0.31681,-0.0759 0.3392,0.0152 0.0303,0.0835 -0.0224,0.25801 -0.0451,0.43634 -0.0224,0.17454 -0.0152,0.36426 0.0379,0.52741 0.0527,0.16695 0.15063,0.31113 0.32403,0.45532 0.1734,0.13279 0.43748,0.2618 0.56573,0.41357 0.13583,0.14418 0.14342,0.30734 0.0831,0.51222 -0.0679,0.19731 -0.21134,0.42876 -0.48262,0.74748 -0.2641,0.31493 -0.64884,0.72471 -1.03356,1.35077 -0.38437,0.63364 -0.76911,1.49115 -0.97287,2.35245 -0.20337,0.85751 -0.21855,1.71122 -0.0451,2.54976 0.18098,0.83474 0.55055,1.64292 0.98045,2.30692 0.42989,0.65641 0.91252,1.16864 1.54617,1.64292 0.63365,0.47809 1.42551,0.91443 2.23217,1.17623 0.80704,0.2656 1.64445,0.35666 2.29288,0.23524 0.65604,-0.12141 1.13146,-0.4591 1.38795,-0.80059 0.25611,-0.33769 0.28647,-0.67918 0.14304,-0.80439 -0.13583,-0.129 -0.44507,-0.0455 -0.79186,0.0379 -0.3468,0.0797 -0.73913,0.14797 -1.18419,0.11003 -0.4447,-0.0455 -0.93491,-0.2011 -1.33483,-0.51981 -0.39954,-0.31493 -0.69398,-0.78921 -0.85978,-1.29006 -0.15823,-0.48947 -0.18858,-0.9941 -0.0679,-1.49116 0.11307,-0.48945 0.36957,-0.96753 0.78428,-1.457 0.4151,-0.48187 0.98045,-0.97892 1.54617,-1.47597 0.56574,-0.50085 1.11628,-0.9979 1.531,-1.47219 0.4075,-0.46669 0.67121,-0.91441 0.78465,-1.41905 0.11307,-0.50464 0.0675,-1.07758 -0.0907,-1.58981 -0.15822,-0.50464 -0.4223,-0.95237 -0.7543,-1.29764 -0.33162,-0.35287 -0.72395,-0.61088 -1.15384,-0.74748 -0.43748,-0.13659 -0.91253,-0.14418 -1.20659,-0.1973 -0.30164,-0.0569 -0.4223,-0.16315 -0.2489,-0.36805 0.1734,-0.19729 0.63365,-0.48187 1.34242,-0.94098 0.70876,-0.4553 1.65924,-1.08137 2.56417,-1.73778 0.89772,-0.65261 1.74993,-1.34697 2.881,-2.4496 1.13145,-1.10869 2.54938,-2.6245 3.81628,-4.17067 1.2673,-1.54579 2.37561,-3.10713 3.3109,-4.50229 0.27925,-0.42231 0.542959,-0.82222 0.791859,-1.21456 0.0831,0.12826 0.1662,0.26409 0.24133,0.39234 0.69396,1.15383 1.23693,2.39836 1.61408,3.67286 0.37714,1.27449 0.5809,2.59452 0.79187,3.90697 h -1.59133 c -0.96526,0 -1.757129,0.79186 -1.757129,1.75714 v 1.10148 c 0,0.96375 0.791869,1.75676 1.757129,1.75676 h 1.84023 c 0.0527,0.0152 0.11496,0.0228 0.14911,0.0759 0.0379,0.0531 0.0607,0.1366 0,0.2618 -0.0584,0.12143 -0.19426,0.28078 -0.4056,0.49326 -0.20338,0.20869 -0.48264,0.48187 -0.69361,0.75886 -0.21892,0.28078 -0.37714,0.57673 -0.51298,0.87648 -0.12824,0.31113 -0.23372,0.62606 -0.33921,0.82336 -0.10585,0.1935 -0.22651,0.2618 -0.33958,0.25421 -0.11307,-0.008 -0.22614,-0.0835 -0.41471,-0.22386 -0.19617,-0.14418 -0.47505,-0.35666 -0.80705,-0.48567 -0.331999,-0.12521 -0.723949,-0.17074 -1.153849,-0.10244 -0.42988,0.0721 -0.89013,0.2618 -1.31243,0.535 -0.42231,0.26939 -0.79946,0.62605 -1.07834,1.10792 -0.27926,0.48188 -0.45266,1.08516 -0.55054,1.68087 -0.0907,0.5957 -0.10587,1.18382 -0.0531,1.80228 0.0531,0.61847 0.1586,1.27488 0.37715,1.93888 0.21893,0.664 0.54334,1.34318 0.77707,1.91611 0.23373,0.56534 0.38436,1.02445 0.36956,1.51771 -0.0152,0.48187 -0.19616,0.99411 -0.53575,1.41527 -0.34679,0.42496 -0.85979,0.75506 -1.38757,0.90683 -0.52778,0.14799 -1.06353,0.12901 -1.5234,0 -0.46025,-0.129 -0.83739,-0.36425 -1.12386,-0.67917 -0.28647,-0.31872 -0.47505,-0.70953 -0.61848,-1.03963 -0.14304,-0.32631 -0.2489,-0.58433 -0.38474,-0.48568 -0.13545,0.10624 -0.30923,0.56535 -0.32402,1.23695 -0.0152,0.66399 0.11307,1.53288 0.49022,2.3183 0.37715,0.78161 0.99562,1.47597 1.74954,2.06408 0.75431,0.58813 1.64406,1.06999 2.50385,1.34318 0.85978,0.27319 1.682,0.33011 2.28529,0.30734 0.60329,-0.019 0.98045,-0.12522 1.30486,-0.29975 0.324409,-0.18212 0.580889,-0.42875 0.769089,-0.55017 0.18857,-0.12142 0.30924,-0.11383 0.332,-0.008 0.0304,0.10623 -0.03,0.31492 -0.0979,0.60328 -0.0679,0.28458 -0.14342,0.65641 -0.10585,1.15346 0.0303,0.49706 0.17377,1.13829 0.55812,2.01477 0.38475,0.87268 1.01081,1.98061 1.45587,2.68256 0.4447,0.70194 0.70118,0.9903 0.97968,1.19899 0.28838,0.21248 0.59571,0.35666 0.81578,0.42496 0.21627,0.0683 0.34528,0.0683 0.47428,0.0683 0.12901,0 0.25801,0 0.47428,-0.0683 0.22008,-0.0683 0.52741,-0.21248 0.81578,-0.42496 0.28457,-0.20869 0.54258,-0.49705 0.97892,-1.19899 0.44773,-0.70195 1.07378,-1.80988 1.45701,-2.68256 0.38322,-0.87648 0.5274,-1.51013 0.55775,-2.01477 0.0304,-0.49705 -0.0379,-0.86888 -0.10623,-1.15346 -0.0683,-0.28836 -0.12901,-0.49705 -0.0987,-0.60328 0.0303,-0.10624 0.14417,-0.11384 0.33389,0.008 0.18972,0.12142 0.45152,0.36805 0.77024,0.55017 0.32251,0.17453 0.69814,0.28077 1.30523,0.29975 0.60329,0.0228 1.42286,-0.0341 2.28416,-0.30734 0.85751,-0.27319 1.74916,-0.75505 2.50422,-1.34318 0.75127,-0.58811 1.36974,-1.29005 1.74917,-2.06408 0.37563,-0.78542 0.51223,-1.65431 0.48946,-2.3183 -0.0152,-0.66401 -0.18971,-1.13071 -0.3225,-1.23695 -0.1366,-0.10624 -0.24284,0.15177 -0.38702,0.48568 -0.14419,0.32251 -0.3377,0.72091 -0.61847,1.03963 -0.28457,0.31492 -0.66401,0.55017 -1.12312,0.67917 -0.4591,0.12901 -0.99409,0.14799 -1.5215,0 -0.5312,-0.15177 -1.04343,-0.48187 -1.3887,-0.90683 -0.34908,-0.42116 -0.51982,-0.9334 -0.535,-1.41527 -0.0152,-0.48567 0.12521,-0.94477 0.36805,-1.51771 0.23525,-0.56535 0.55775,-1.24453 0.77783,-1.91611 0.21627,-0.664 0.3225,-1.32041 0.37563,-1.93888 0.0531,-0.61846 0.0379,-1.20658 -0.0531,-1.80228 -0.0911,-0.59571 -0.26939,-1.19899 -0.55017,-1.68087 -0.27697,-0.48187 -0.6564,-0.83853 -1.07757,-1.10792 -0.42116,-0.2732 -0.89165,-0.46291 -1.31282,-0.535 -0.42875,-0.0759 -0.82336,-0.0228 -1.15346,0.10244 -0.33389,0.12901 -0.61088,0.34149 -0.80819,0.48567 -0.1935,0.14039 -0.29974,0.21628 -0.41357,0.22386 -0.11383,0.008 -0.22765,-0.0607 -0.34148,-0.25421 -0.10245,-0.1973 -0.20869,-0.51223 -0.3377,-0.82336 -0.129,-0.30734 -0.29216,-0.5957 -0.51222,-0.87648 -0.22007,-0.27699 -0.48947,-0.55017 -0.69436,-0.75886 -0.20489,-0.21248 -0.34528,-0.37183 -0.40599,-0.49326 -0.0607,-0.11762 -0.0379,-0.20868 0,-0.2618 0.0379,-0.0531 0.0949,-0.0607 0.14799,-0.0759 h 1.84022 c 0.96753,0 1.76054,-0.79301 1.76054,-1.75676 v -1.10148 c 0,-0.96528 -0.79301,-1.75714 -1.76054,-1.75714 h -1.58981 c 0.21248,-1.31245 0.41358,-2.62488 0.793,-3.90697 0.37564,-1.2745 0.91822,-2.51903 1.60499,-3.67286 0.0759,-0.13584 0.15935,-0.26408 0.24284,-0.39234 0.24663,0.39234 0.51222,0.79946 0.78921,1.21456 0.93718,1.39516 2.04511,2.9637 3.31241,4.50229 1.26728,1.54617 2.68634,3.06198 3.81703,4.17067 1.1307,1.11022 1.98442,1.79699 2.87986,2.4496 0.89925,0.65641 1.85541,1.28248 2.56495,1.73778 0.70952,0.45153 1.17622,0.7361 1.34317,0.94098 0.17074,0.19731 0.0455,0.31114 -0.25042,0.36805 -0.29975,0.0607 -0.77784,0.0607 -1.20658,0.1973 -0.43635,0.1366 -0.82336,0.4022 -1.15346,0.74748 -0.33011,0.35286 -0.59571,0.793 -0.75506,1.29764 -0.15937,0.50464 -0.19352,1.07758 -0.0911,1.58981 0.11382,0.50464 0.37183,0.95236 0.78542,1.41905 0.40598,0.4667 0.96754,0.97134 1.53288,1.47219 0.56535,0.49705 1.1307,0.9941 1.54427,1.47597 0.41359,0.48187 0.67159,0.96755 0.78542,1.457 0.11383,0.48947 0.0911,0.99411 -0.0683,1.49116 -0.15935,0.49325 -0.45911,0.96754 -0.8613,1.29006 -0.3984,0.31871 -0.88785,0.47428 -1.33559,0.51981 -0.44392,0.0455 -0.83474,-0.0304 -1.18381,-0.11003 -0.34528,-0.0835 -0.65641,-0.16695 -0.78921,-0.0379 -0.13659,0.12521 -0.10623,0.4667 0.14038,0.80439 0.25801,0.34149 0.73231,0.67918 1.38872,0.80059 0.6564,0.12142 1.48735,0.0304 2.29174,-0.23524 0.80818,-0.2618 1.60119,-0.70574 2.23483,-1.17623 0.63365,-0.47428 1.11552,-0.97892 1.54427,-1.64292 0.43255,-0.65642 0.80059,-1.47218 0.98273,-2.30692 0.17073,-0.83854 0.15556,-1.69225 -0.0455,-2.54976 -0.2049,-0.8613 -0.58811,-1.71881 -0.97513,-2.35245 -0.38322,-0.63365 -0.76644,-1.03584 -1.03204,-1.35077 -0.26181,-0.31872 -0.41358,-0.55017 -0.48188,-0.74748 -0.0683,-0.1973 -0.0531,-0.36045 0.0835,-0.51222 0.1366,-0.14419 0.39082,-0.2732 0.56535,-0.41357 0.17454,-0.1366 0.2694,-0.28837 0.32252,-0.45532 0.0531,-0.16315 0.0607,-0.34529 0.0379,-0.52741 -0.0228,-0.17074 -0.0683,-0.34527 -0.0455,-0.43634 0.0304,-0.0835 0.12901,-0.0835 0.34148,-0.0152 0.20869,0.0759 0.52741,0.22007 0.89545,0.48187 0.37185,0.26561 0.79301,0.64883 1.20659,1.20659 0.41737,0.55017 0.82336,1.27488 1.13828,1.96164 0.31872,0.68676 0.53879,1.34317 0.70195,2.02235 0.16695,0.67918 0.27318,1.38113 0.29595,2.01856 0.0152,0.64123 -0.0683,1.21417 -0.1366,1.63155 -0.0683,0.41357 -0.129,0.67158 0.0607,0.76265 0.18971,0.0873 0.62606,0.0152 1.09275,-0.19731 0.45911,-0.22007 0.94479,-0.58053 1.32042,-0.99031 0.36804,-0.41358 0.63365,-0.87268 0.74747,-1.30143 0.11383,-0.42496 0.0759,-0.80819 -0.0228,-1.17623 -0.0986,-0.37184 -0.25801,-0.72471 -0.34907,-0.9979 -0.0873,-0.26939 -0.10244,-0.4591 0.11382,-0.44393 0.22767,0.0152 0.68678,0.23525 1.22176,0.38323 0.535,0.15177 1.13829,0.22765 1.71123,0.24282 0.57673,0.0152 1.11172,-0.0303 1.41906,-0.11382 0.30354,-0.0759 0.37943,-0.18213 0.31872,-0.48187 -0.0607,-0.30355 -0.25801,-0.79301 -0.535,-1.28248 -0.28078,-0.48945 -0.64882,-0.97133 -1.01307,-1.32798 -0.36046,-0.35288 -0.71712,-0.58054 -0.90304,-0.74748 -0.18971,-0.16316 -0.21248,-0.27699 -0.18971,-0.34528 0.0228,-0.0683 0.0986,-0.0987 0.35287,-0.15177 0.25801,-0.0455 0.69435,-0.11383 1.08137,-0.32252 0.38322,-0.21248 0.70573,-0.55776 0.91062,-0.95995 0.21249,-0.3984 0.30354,-0.8575 0.31114,-1.31282 0.008,-0.45153 -0.0759,-0.89545 -0.18972,-1.23693 -0.11383,-0.3377 -0.25801,-0.56536 -0.3908,-0.65642 -0.1366,-0.0949 -0.25802,-0.0645 -0.53121,0.18972 -0.2694,0.25801 -0.68297,0.73988 -1.21417,1.14586 -0.52741,0.40221 -1.16863,0.72471 -2.0565,1.00549 -0.89166,0.2694 -2.02994,0.49705 -2.86848,0.58052 -0.83474,0.0835 -1.38491,0.0228 -1.95026,-0.0986 -0.57294,-0.11384 -1.17243,-0.28837 -1.54807,-0.45911 -0.36804,-0.17454 -0.51981,-0.34149 -0.53499,-0.47049 -0.0152,-0.11762 0.0986,-0.19352 0.29975,-0.28457 0.20489,-0.0987 0.49325,-0.21248 0.68677,-0.41738 0.1973,-0.20109 0.30354,-0.48946 0.34908,-0.77403 0.0455,-0.28836 0.0455,-0.57294 0.0835,-0.75506 0.0379,-0.17454 0.11003,-0.24284 0.36804,-0.31113 0.25801,-0.0569 0.69435,-0.12521 1.3963,-0.16315 0.70193,-0.0455 1.67327,-0.0683 2.5877,-0.26561 0.91062,-0.1973 1.77193,-0.57256 2.47386,-1.14587 0.70574,-0.58054 1.25971,-1.35722 1.65052,-2.11153 0.39081,-0.74672 0.61846,-1.46307 0.71712,-2.14186 0.0987,-0.67881 0.0683,-1.32763 -0.0911,-1.91574 -0.15935,-0.58849 -0.43634,-1.10869 -0.85371,-1.65924 -0.41358,-0.55055 -0.96375,-1.11628 -1.56704,-1.59133 -0.60328,-0.47504 -1.26729,-0.85978 -1.94646,-1.02559 -0.67918,-0.1586 -1.37353,-0.0983 -1.81746,0.0979 -0.44394,0.20375 -0.64124,0.54295 -0.64882,0.98043 -0.008,0.43749 0.18212,0.95768 0.53499,1.47067 0.36425,0.51299 0.89925,1.00321 1.51013,1.38758 0.61088,0.38474 1.30523,0.64882 1.7871,0.89013 0.48188,0.24131 0.76644,0.45266 0.91062,0.65604 0.14418,0.20374 0.15937,0.39991 -0.0531,0.73912 -0.20869,0.33958 -0.64124,0.81463 -1.20659,1.12386 -0.56534,0.30924 -1.2597,0.45987 -1.79469,0.46746 -0.53499,0.008 -0.90305,-0.12825 -1.51391,-0.39953 -0.61088,-0.27168 -1.4646,-0.67122 -2.23485,-0.98045 -0.76644,-0.30165 -1.46838,-0.51299 -2.10961,-0.59608 -0.64124,-0.0827 -1.22935,-0.0452 -1.74917,0.13583 -0.5236,0.18858 -0.97513,0.52058 -1.29005,0.95806 -0.31872,0.43748 -0.49705,0.97285 -0.52741,1.50063 -0.0303,0.52817 0.0949,1.04078 0.29216,1.4407 0.19731,0.39954 0.45153,0.69359 0.6033,0.90493 0.15177,0.21134 0.20489,0.332 0.12141,0.43066 -0.0835,0.0987 -0.29595,0.18213 -0.70952,0.14419 -0.41359,-0.0379 -1.03205,-0.19768 -1.7264,-0.45419 -0.69436,-0.2565 -1.4646,-0.61088 -2.42075,-1.16143 -0.95996,-0.55055 -2.11342,-1.28968 -3.18341,-2.1119 -1.07758,-0.82943 -2.07548,-1.74195 -3.06199,-2.7076 -0.97892,-0.96526 -1.94646,-1.96809 -2.90263,-3.09954 -0.55775,-0.66362 -1.10792,-1.36519 -1.61635,-2.08914 0.42495,-0.55814 0.87647,-1.07833 1.34317,-1.55375 0.88406,-0.90494 1.80228,-1.63648 2.66359,-2.1267 0.85751,-0.49781 1.6581,-0.7543 2.13997,-0.87496 0.48567,-0.12066 0.64882,-0.11307 0.72472,-0.0152 0.0759,0.0983 0.0683,0.27166 -0.038,0.52816 -0.0986,0.25649 -0.29216,0.5957 -0.33768,1.01041 -0.0531,0.41509 0.0455,0.92012 0.25421,1.32763 0.21248,0.40712 0.55017,0.71635 1.02066,0.9201 0.4667,0.20339 1.0624,0.30166 1.60499,0.2565 0.54258,-0.0531 1.03203,-0.2417 1.58601,-0.59608 0.55016,-0.3468 1.16863,-0.85219 1.80228,-1.23694 0.62605,-0.38436 1.27108,-0.65603 1.89714,-0.65603 0.62606,0 1.23694,0.27167 1.75295,0.6033 0.51223,0.33958 0.91823,0.73912 1.22176,1.20696 0.29976,0.46745 0.49706,1.00282 0.57294,1.47065 0.0759,0.47506 0.0228,0.88977 -0.0455,1.26692 -0.0683,0.37714 -0.16695,0.72395 -0.11382,0.93529 0.0531,0.21096 0.25042,0.29406 0.51222,0.03 0.2656,-0.26371 0.5957,-0.86737 0.83853,-1.59132 0.23905,-0.72395 0.40599,-1.56856 0.36805,-2.39837 -0.0379,-0.82943 -0.26939,-1.65165 -0.87268,-2.50384 -0.61088,-0.8522 -1.5936,-1.74233 -2.68635,-2.34563 -1.09276,-0.61087 -2.28416,-0.93529 -3.64252,-0.96526 -1.35076,-0.0303 -2.8495,0.2489 -4.36721,0.71635 -1.51772,0.46784 -3.03163,1.13905 -4.23062,1.76511 -1.19141,0.62567 -2.0603,1.21417 -2.80777,1.88537 -0.67539,0.61088 -1.24833,1.29727 -1.77953,2.00604 -0.1252,-0.21096 -0.24662,-0.4223 -0.36804,-0.63326 -0.70194,-1.27488 -1.16105,-2.56455 -1.44941,-3.60533 -0.29216,-1.04077 -0.42117,-1.83264 -0.42117,-2.549 0,-0.71674 0.12142,-1.35 0.3377,-1.80266 0.22765,-0.45266 0.55396,-0.70877 0.94477,-0.83702 0.39081,-0.12824 0.8613,-0.11307 1.25212,0.0148 0.39081,0.12825 0.70952,0.36956 1.1231,0.76948 0.41357,0.39954 0.922,0.95009 1.44941,1.35 0.52741,0.39954 1.07758,0.64845 1.67329,0.76911 0.59569,0.12066 1.23693,0.10586 1.83264,0 0.59569,-0.10548 1.15346,-0.30924 1.6581,-0.59571 0.50464,-0.28647 0.96753,-0.65602 1.3887,-1.1766 0.41357,-0.5202 0.80059,-1.18382 1.00169,-1.82506 0.2049,-0.64123 0.23524,-1.2521 0.1366,-1.81745 -0.0987,-0.56574 -0.32252,-1.0863 -0.64124,-1.52379 -0.31493,-0.43709 -0.7247,-0.79946 -1.0624,-0.97286 -0.34148,-0.17338 -0.5957,-0.15821 -0.664,-0.03 -0.0683,0.13584 0.0607,0.39195 0.1973,0.70878 0.1328,0.32441 0.28457,0.70915 0.32252,1.13903 0.0379,0.4375 -0.0303,0.92012 -0.25422,1.32725 -0.22766,0.41472 -0.61088,0.7543 -1.05102,0.93529 -0.43634,0.1734 -0.93339,0.18858 -1.3925,0.0603 -0.46289,-0.12825 -0.89165,-0.4075 -1.35076,-0.8522 -0.45911,-0.44506 -0.95236,-1.05594 -1.43424,-1.50861 -0.48187,-0.45227 -0.95615,-0.75392 -1.46839,-0.92769 -0.51602,-0.1734 -1.06619,-0.21097 -1.50253,-0.14304 -0.43634,0.0679 -0.77024,0.24131 -1.09276,0.52019 -0.3263,0.27926 -0.63364,0.65641 -0.90683,1.00321 -0.26939,0.34679 -0.50464,0.65602 -0.69435,0.82222 -0.18592,0.15821 -0.33769,0.1734 -0.45911,0.11307 -0.129,-0.0603 -0.22765,-0.20376 -0.41357,-0.59608 -0.18971,-0.38437 -0.45532,-1.02559 -0.65641,-1.57616 -0.19731,-0.55054 -0.32632,-1.02559 -0.37185,-1.31964 -0.0455,-0.29444 -0.008,-0.40751 0.0911,-0.45266 0.0986,-0.0451 0.25801,-0.0152 0.51223,-0.0228 0.25801,-0.008 0.61088,-0.0603 0.98271,-0.22614 0.36806,-0.16581 0.76265,-0.44506 1.03964,-0.89013 0.27319,-0.4447 0.43634,-1.05558 0.42116,-1.59133 -0.0152,-0.52778 -0.2011,-0.98043 -0.50463,-1.53857 -0.29976,-0.55055 -0.70954,-1.20659 -1.07,-1.7947 -0.36045,-0.58838 -0.67917,-1.11632 -0.9258,-1.418 -0.24283,-0.30168 -0.41737,-0.39218 -0.56155,-0.43744 -0.14039,-0.0453 -0.25422,-0.0453 -0.37564,-0.0453 -0.11383,0 -0.23524,0 -0.37563,0.0453 -0.14418,0.0453 -0.31872,0.1282 -0.55775,0.43744 -0.24284,0.3092 -0.56535,0.82962 -0.92923,1.418 -0.36197,0.58811 -0.77668,1.24415 -1.07112,1.7947 -0.30165,0.55055 -0.49023,1.0032 -0.50502,1.53857 -0.0152,0.52817 0.14304,1.14663 0.4223,1.59133 0.27129,0.44507 0.66363,0.72432 1.04077,0.89013 0.36956,0.16582 0.72356,0.21134 0.98158,0.22614 z m 1.64292,9.93305 c 0.0759,-0.21893 0.0835,-0.40751 0.0986,-0.57331 0.0152,-0.16581 0.0379,-0.30165 0.12141,-0.35438 0.0835,-0.0455 0.22386,-0.008 0.35287,0.30923 0.1366,0.30923 0.2656,0.88976 0.535,1.83263 0.27318,0.94251 0.69435,2.25494 1.28246,3.52186 0.26561,0.56572 0.55776,1.12386 0.89166,1.69718 -0.31872,0.46745 -0.6033,0.93529 -0.85372,1.38756 -0.42116,0.74672 -0.74746,1.44828 -1.06239,2.29289 -0.31872,0.84461 -0.62605,1.82504 -0.83854,2.72999 -0.20868,0.90531 -0.32251,1.71957 -0.42875,2.54179 h -0.73989 -0.73988 c -0.11383,-0.82222 -0.21627,-1.63648 -0.42875,-2.54179 -0.21248,-0.89735 -0.52058,-1.88538 -0.83741,-2.72999 -0.3168,-0.84461 -0.64084,-1.54617 -1.06314,-2.29289 -0.25649,-0.45227 -0.54335,-0.92011 -0.85257,-1.38756 0.33199,-0.57332 0.62605,-1.13146 0.89013,-1.69718 0.58811,-1.26692 1.01079,-2.57935 1.28208,-3.52186 0.26977,-0.94287 0.39878,-1.5234 0.53538,-1.83263 0.13658,-0.30923 0.27318,-0.35477 0.35286,-0.30923 0.0835,0.0527 0.10624,0.18857 0.12142,0.35438 0.0152,0.1658 0.0228,0.35438 0.0986,0.57331 0.0759,0.21856 0.22008,0.46745 0.34149,0.59571 0.11763,0.12824 0.20869,0.12824 0.30735,0.12824 0.0986,0 0.18971,0 0.31112,-0.12824 0.11762,-0.12826 0.2618,-0.37715 0.3377,-0.59571 z m -0.94857,23.3208 c 0.11762,-0.0303 0.20869,-0.0303 0.29974,-0.0228 0.0987,-0.008 0.18972,-0.0152 0.31114,0.0228 0.11762,0.0304 0.25422,0.10624 0.48945,0.58053 0.22388,0.46669 0.55018,1.33558 0.9334,2.4511 0.38702,1.11552 0.83853,2.48146 1.09276,3.5894 0.25801,1.10793 0.31112,1.97682 0.15935,2.72809 -0.15176,0.75506 -0.51222,1.40388 -0.88786,1.80987 -0.37942,0.40978 -0.77024,0.58431 -1.11931,0.66399 -0.34528,0.0835 -0.65262,0.0835 -0.96374,0.0835 -0.30735,0 -0.61848,0 -0.96375,-0.0835 -0.34908,-0.0797 -0.74065,-0.25421 -1.1178,-0.66399 -0.37676,-0.40599 -0.73911,-1.05481 -0.88974,-1.80987 -0.15103,-0.75127 -0.0983,-1.61258 0.15821,-2.72809 0.2565,-1.10794 0.70914,-2.47388 1.09388,-3.5894 0.3836,-1.11552 0.70232,-1.98441 0.93378,-2.4511 0.22765,-0.47049 0.37183,-0.54259 0.49325,-0.58053 z"
         style="fill:#000000;fill-rule:evenodd;stroke:#000000;stroke-width:0.0574682" /></g></g></svg>
