<?xml version="1.0" encoding="UTF-8" standalone="no"?>
<!-- Created with Inkscape (http://www.inkscape.org/) -->

<svg
   width="185.57623mm"
   height="56.60099mm"
   viewBox="0 0 185.57623 56.60099"
   version="1.1"
   id="svg1"
   xml:space="preserve"
   xmlns="http://www.w3.org/2000/svg"
   xmlns:svg="http://www.w3.org/2000/svg"><defs
     id="defs1"><style
       id="style3135"
       type="text/css" /><style
       id="style3135-6"
       type="text/css" /></defs><g
     id="layer1"
     transform="translate(-12.211885,-26.316255)"><g
       id="g7"><path
         id="path3253"
         style="fill:#000000;fill-rule:evenodd;stroke:#000000;stroke-width:0.0585685"
         d="m 88.321385,49.111609 c -0.26902,-0.35288 -0.49174,-0.52361 -0.58393,-0.66779 -0.0922,-0.15558 -0.0615,-0.28457 0.19957,-0.3301 0.26142,-0.0418 0.76873,0.0152 1.65279,0.33768 0.89127,0.3301 2.1673,0.93719 3.3587,1.62775 1.18344,0.69056 2.27506,1.47597 3.51236,2.59908 0.4151,0.37564 0.84537,0.80059 1.28361,1.24453 l -0.10738,0.0835 c -1.27601,0.922 -2.74402,1.73019 -4.21962,2.47007 -1.47598,0.7361 -2.97471,1.41148 -4.25832,2.15136 -1.29119,0.7361 -2.36725,1.54428 -3.25094,2.25002 -0.88406,0.71712 -1.56021,1.33938 -2.16768,2.10582 -0.59949,0.77023 -1.12955,1.68466 -1.46042,2.53838 -0.33807,0.8537 -0.47618,1.63533 -0.47618,2.36004 0.008,0.72091 0.15368,1.36594 0.33808,1.88954 0.1844,0.52362 0.39195,0.91443 0.61467,1.08518 0.2231,0.16694 0.44583,0.10624 0.63023,-0.0949 0.18479,-0.1973 0.33086,-0.52741 0.57673,-0.92202 0.25346,-0.3908 0.60708,-0.84612 1.08365,-1.07377 0.47656,-0.22387 1.07606,-0.21628 1.61408,0 0.53803,0.21248 1.02977,0.63743 1.35267,1.34317 0.32289,0.69814 0.49173,1.67707 0.57635,2.54597 0.0846,0.86508 0.0922,1.62014 0.0307,2.22723 -0.0615,0.60709 -0.18441,1.05482 -0.44584,1.56704 -0.25346,0.51602 -0.6454,1.09275 -1.04494,1.43045 -0.39233,0.33769 -0.79945,0.42876 -1.28361,0.42116 -0.49211,-0.008 -1.06847,-0.12141 -1.49115,-0.36804 -0.43065,-0.24663 -0.70725,-0.62226 -0.78389,-1.07379 -0.077,-0.4553 0.0459,-0.98651 0.12292,-1.43043 0.0766,-0.44774 0.0998,-0.81578 0.0539,-1.07758 -0.0539,-0.26181 -0.1768,-0.406 -0.36918,-0.45911 -0.19199,-0.0455 -0.43785,0.008 -0.84536,0.20488 -0.40751,0.19352 -0.9683,0.53121 -1.41414,0.83096 -0.45341,0.29974 -0.79186,0.57673 -0.8685,0.84612 -0.077,0.2694 0.12293,0.54637 0.2766,0.8613 0.15366,0.31493 0.2766,0.6678 0.29974,0.89925 0.0232,0.23144 -0.0463,0.34528 -0.1768,0.39081 -0.13053,0.0455 -0.3229,0.0152 -0.46898,-0.10624 -0.1457,-0.12522 -0.26105,-0.3377 -0.44544,-0.54637 -0.18479,-0.20869 -0.43825,-0.406 -0.730411,-0.53121 -0.29216,-0.11382 -0.61467,-0.15177 -0.99144,-0.0607 -0.37677,0.0911 -0.79149,0.29976 -1.07605,0.48567 -0.2842,0.18213 -0.4227,0.33011 -0.45342,0.47429 -0.0308,0.14039 0.0539,0.27698 0.19199,0.41736 0.13849,0.1366 0.34604,0.28458 0.45341,0.43635 0.11535,0.15557 0.1309,0.30734 0.10776,0.41358 -0.0307,0.11003 -0.11535,0.16316 -0.24587,0.18592 -0.13091,0.0228 -0.30733,0.0152 -0.47657,-0.0455 -0.16922,-0.0607 -0.32288,-0.17834 -0.51488,-0.28458 -0.19237,-0.10624 -0.41509,-0.20868 -0.63022,-0.26939 -0.21552,-0.0607 -0.40751,-0.0759 -0.92239,0.16315 -0.51489,0.23525 -1.33749,0.72092 -2.09824,1.14209 -0.76112,0.42496 -1.44523,0.793 -1.96771,1.14587 -0.52262,0.35286 -0.86852,0.69435 -1.05298,0.96374 -0.18445,0.26561 -0.19982,0.4667 -0.16908,0.57294 0.0307,0.11003 0.12297,0.1328 0.33819,0.14797 0.2152,0.008 0.56097,0.008 0.90701,0.008 h 34.593596 34.59626 c 0.34528,0 0.69057,0 0.90684,-0.008 0.21628,-0.008 0.29975,-0.0303 0.33769,-0.14797 0.0303,-0.10624 0.0152,-0.30733 -0.17075,-0.57294 -0.18212,-0.26939 -0.52741,-0.61088 -1.05101,-0.96374 -0.52362,-0.35287 -1.20659,-0.72091 -1.96924,-1.14587 -0.75885,-0.42117 -1.58221,-0.91442 -2.09823,-1.14209 -0.51223,-0.23904 -0.70573,-0.22386 -0.92202,-0.16315 -0.21247,0.0607 -0.43634,0.16315 -0.62984,0.26939 -0.19351,0.10624 -0.34529,0.22386 -0.51602,0.28458 -0.16695,0.0607 -0.34528,0.0683 -0.47428,0.0455 -0.13281,-0.0228 -0.21628,-0.0835 -0.24663,-0.18592 -0.0304,-0.10624 -0.008,-0.25801 0.10624,-0.41358 0.11762,-0.15177 0.31491,-0.29975 0.4553,-0.43635 0.1366,-0.14038 0.22386,-0.27697 0.19352,-0.41736 -0.0342,-0.1366 -0.17833,-0.29216 -0.45532,-0.47429 -0.28457,-0.18591 -0.69814,-0.3946 -1.07758,-0.48567 -0.37563,-0.0911 -0.69814,-0.0531 -0.9903,0.0607 -0.29217,0.11762 -0.55397,0.31493 -0.72851,0.53121 -0.18592,0.20867 -0.29216,0.42115 -0.44772,0.54637 -0.14418,0.12141 -0.33769,0.14418 -0.4667,0.10624 -0.1328,-0.0455 -0.2011,-0.15937 -0.17833,-0.39081 0.0228,-0.23145 0.14419,-0.58432 0.29975,-0.89925 0.15557,-0.31493 0.35287,-0.58431 0.27698,-0.8613 -0.0759,-0.27699 -0.41357,-0.54638 -0.86889,-0.84612 -0.45152,-0.29975 -1.01307,-0.63744 -1.41526,-0.83096 -0.406,-0.18971 -0.65262,-0.25041 -0.84613,-0.20488 -0.18971,0.0455 -0.31493,0.1973 -0.36804,0.45911 -0.0531,0.2618 -0.0228,0.62984 0.0531,1.07758 0.0797,0.44392 0.2011,0.97513 0.12522,1.43043 -0.0759,0.45153 -0.36046,0.82716 -0.78542,1.07379 -0.42875,0.24663 -1.00549,0.36045 -1.49115,0.36804 -0.48947,0.008 -0.89166,-0.0835 -1.28247,-0.42116 -0.3984,-0.3377 -0.78542,-0.91443 -1.04722,-1.43045 -0.25042,-0.51222 -0.38323,-0.96754 -0.44393,-1.56704 -0.0607,-0.60709 -0.0531,-1.36215 0.0304,-2.22723 0.0835,-0.8689 0.25421,-1.84783 0.57673,-2.54597 0.32251,-0.69814 0.81576,-1.1231 1.35455,-1.34317 0.535,-0.21628 1.13449,-0.22387 1.61257,0 0.47808,0.22007 0.83095,0.67537 1.08517,1.07377 0.25042,0.39461 0.39081,0.7323 0.57293,0.92202 0.18592,0.2011 0.41738,0.2618 0.63365,0.0949 0.22007,-0.17075 0.42876,-0.56156 0.61468,-1.08518 0.18212,-0.5236 0.3301,-1.17622 0.33768,-1.88954 0,-0.72471 -0.14039,-1.50634 -0.47807,-2.36004 -0.3377,-0.85372 -0.86131,-1.76815 -1.46081,-2.53838 -0.60708,-0.76644 -1.28246,-1.3887 -2.16653,-2.10582 -0.88406,-0.71333 -1.96924,-1.51392 -3.2517,-2.25002 -1.29005,-0.73988 -2.7812,-1.41526 -4.25718,-2.15136 -1.47598,-0.73988 -2.94436,-1.54807 -4.21924,-2.47007 l -0.11003,-0.0835 c 0.44013,-0.44394 0.86889,-0.86889 1.28625,-1.24453 1.23693,-1.12311 2.32969,-1.90852 3.51351,-2.59908 1.18003,-0.69056 2.46628,-1.29765 3.35794,-1.62775 0.89166,-0.3301 1.38871,-0.38702 1.65051,-0.33768 0.26939,0.0379 0.29216,0.17452 0.20109,0.3301 -0.091,0.15177 -0.31493,0.31491 -0.58431,0.66779 -0.26939,0.35287 -0.58432,0.89165 -0.69815,1.44561 -0.11763,0.55398 -0.0228,1.12311 0.33769,1.61258 0.36046,0.50084 0.99031,0.92201 1.65051,1.13069 0.6716,0.21627 1.36974,0.21627 2.44352,-0.0607 1.07758,-0.27699 2.5156,-0.83095 3.76013,-1.17623 1.24453,-0.34529 2.29934,-0.49326 3.22894,-0.46291 0.9296,0.0304 1.74536,0.23905 2.41316,0.58432 0.67539,0.35287 1.21417,0.85372 1.62775,1.41527 0.41736,0.56155 0.71712,1.18382 0.90683,1.88955 0.2011,0.71712 0.29974,1.51392 0.27698,2.23863 -0.0228,0.72091 -0.16695,1.36594 -0.16695,1.71881 0,0.35666 0.14419,0.42496 0.35287,0.28457 0.20869,-0.1366 0.48187,-0.47428 0.69815,-1.17244 0.21627,-0.70193 0.37564,-1.76053 0.36045,-2.86088 -0.008,-1.09275 -0.18971,-2.21966 -0.74367,-3.35794 -0.54637,-1.1307 -1.46839,-2.26898 -2.55355,-3.25929 -1.08137,-0.9903 -2.34107,-1.82885 -3.85499,-2.36764 -1.51771,-0.53877 -3.28965,-0.77782 -5.06537,-0.77782 -1.77572,0 -3.54386,0.23905 -5.42202,0.83854 -1.87438,0.5995 -3.84741,1.57463 -5.45619,2.61426 -1.59739,1.03584 -2.82673,2.14376 -3.88154,3.22893 -0.18972,0.19731 -0.37564,0.39081 -0.55397,0.58433 -0.83474,-0.69437 -1.54427,-1.37734 -2.04133,-1.88577 -0.69435,-0.69814 -0.97892,-1.04343 -1.05481,-1.41147 -0.0759,-0.37942 0.0531,-0.78542 -0.11382,-1.33938 -0.17833,-0.56156 -0.65262,-1.26729 -1.05481,-1.64293 -0.39081,-0.37183 -0.69814,-0.40219 -0.85372,-0.57673 -0.15176,-0.17073 -0.14418,-0.49325 -0.14418,-0.80818 h 2.36764 c 0.36045,0 0.6602,-0.29974 0.6602,-0.66096 v -0.59191 c 0,-0.36121 -0.29975,-0.66097 -0.6602,-0.66097 h -2.37522 c -0.008,-0.11534 -0.0152,-0.23069 0.0379,-0.5456 0.0531,-0.31532 0.17074,-0.8302 0.34528,-1.28362 0.18592,-0.45342 0.43255,-0.83777 0.65262,-1.00699 0.22386,-0.16885 0.40977,-0.12294 0.53879,0.008 0.13279,0.13811 0.20109,0.36121 0.34527,0.56876 0.15556,0.20754 0.38702,0.38398 0.78542,0.461 0.3984,0.0691 0.95995,0.0307 1.35077,-0.14608 0.40219,-0.1844 0.62984,-0.50729 0.83853,-0.98385 0.20869,-0.47656 0.39081,-1.10679 0.75506,-1.59853 0.36046,-0.49212 0.89925,-0.84537 1.38112,-0.99145 0.48567,-0.14608 0.91443,-0.077 1.26349,0.14608 0.33769,0.22273 0.59192,0.59153 0.72092,0.93757 0.129,0.34565 0.13659,0.66097 0.0759,1.01458 -0.0607,0.35364 -0.18971,0.73761 -0.23903,0.99145 -0.0455,0.25346 -0.008,0.37677 0.23144,0.27661 0.23905,-0.0998 0.66779,-0.43027 1.03205,-0.93757 0.36046,-0.5073 0.6602,-1.19899 0.7968,-1.83681 0.14798,-0.6382 0.14039,-1.22214 0.0228,-1.76813 -0.11383,-0.54562 -0.3301,-1.05291 -0.68297,-1.40655 -0.34528,-0.35324 -0.82335,-0.56079 -1.25211,-0.57635 -0.43254,-0.0152 -0.80819,0.16164 -1.09276,0.33807 -0.28457,0.18478 -0.47428,0.36918 -0.64503,0.43065 -0.16694,0.0615 -0.3225,-0.008 -0.36044,-0.15366 -0.038,-0.14608 0.0379,-0.37678 0.0911,-0.60747 0.0531,-0.23828 0.0835,-0.47618 0.0152,-0.7452 -0.0683,-0.26901 -0.23904,-0.56117 -0.38322,-0.83778 -0.15557,-0.27698 -0.28457,-0.52284 -0.42117,-0.62264 -0.14039,-0.10016 -0.27698,-0.0539 -0.60708,0.16126 -0.3339,0.21514 -0.86131,0.59949 -1.25591,1.01459 -0.3908,0.41509 -0.65262,0.85333 -0.81197,1.46042 -0.16316,0.60709 -0.23146,1.38339 -0.51602,1.83681 -0.27699,0.46139 -0.76266,0.59949 -0.97514,0.42269 -0.21628,-0.18441 -0.16315,-0.6917 -0.0721,-1.26806 0.0949,-0.57635 0.22386,-1.22972 0.57672,-1.8368 0.35666,-0.5995 0.9296,-1.15308 1.45321,-1.57577 0.53121,-0.4151 1.01687,-0.69929 1.25971,-1.12235 0.25421,-0.43027 0.26939,-1.00662 0.10244,-1.51392 -0.17074,-0.51488 -0.51603,-0.9607 -0.95237,-1.19899 -0.44013,-0.24586 -0.96375,-0.2766 -1.41526,-0.20755 -0.4629,0.0691 -0.85372,0.25346 -1.06999,0.49971 -0.21248,0.24587 -0.24663,0.5532 -0.38323,0.73761 -0.14796,0.17682 -0.3984,0.2231 -0.58431,0.17682 -0.18592,-0.0459 -0.28458,-0.18441 -0.33769,-0.33049 -0.0455,-0.15366 -0.0379,-0.31493 0.0228,-0.44582 0.0607,-0.12294 0.18592,-0.20755 0.30733,-0.3229 0.12141,-0.11497 0.24663,-0.26105 0.30734,-0.52248 0.0607,-0.26143 0.0683,-0.63781 -0.0228,-0.99903 -0.0986,-0.35362 -0.29974,-0.69208 -0.62226,-0.9148 -0.31493,-0.22273 -0.75506,-0.33807 -1.05482,-0.39195 -0.29974,-0.0615 -0.47428,-0.0615 -0.65261,-0.0615 -0.17453,0 -0.34528,0 -0.65262,0.0615 -0.29974,0.0539 -0.73798,0.16922 -1.05329,0.39195 -0.31492,0.22272 -0.52247,0.55358 -0.62226,0.9148 -0.10017,0.35325 -0.0922,0.7376 -0.0231,0.99903 0.0615,0.26143 0.1844,0.40751 0.30733,0.52248 0.12294,0.11535 0.24587,0.19996 0.30734,0.3229 0.0618,0.12292 0.0694,0.29216 0.0231,0.44582 -0.0459,0.15367 -0.15366,0.28457 -0.33807,0.33049 -0.18439,0.0463 -0.43823,0 -0.58431,-0.17682 -0.1457,-0.17681 -0.17644,-0.49174 -0.38399,-0.73761 -0.21552,-0.24625 -0.60746,-0.43065 -1.06846,-0.49971 -0.46138,-0.0691 -0.983861,-0.0307 -1.414141,0.20755 -0.43824,0.24587 -0.78428,0.6917 -0.95311,1.19899 -0.16924,0.51489 -0.15367,1.09124 0.0998,1.51392 0.25384,0.43065 0.73799,0.70725 1.26047,1.12235 0.530431,0.41509 1.106781,0.96831 1.452821,1.57577 0.35363,0.5995 0.48415,1.25248 0.57636,1.8368 0.0922,0.57636 0.14608,1.09124 -0.0691,1.26806 -0.21513,0.1844 -0.69965,0.0387 -0.97626,-0.42269 -0.2766,-0.461 -0.34565,-1.22972 -0.51489,-1.83681 -0.16125,-0.60709 -0.422681,-1.04533 -0.814631,-1.46042 -0.39194,-0.4151 -0.92239,-0.79945 -1.25287,-1.01459 -0.33048,-0.21514 -0.46897,-0.26142 -0.607084,-0.16126 -0.13849,0.0998 -0.27698,0.35363 -0.42306,0.62264 -0.15367,0.26902 -0.31493,0.56877 -0.38399,0.83778 -0.0694,0.26902 -0.0387,0.51489 0.0152,0.7452 0.0539,0.23828 0.13052,0.46139 0.0922,0.60747 -0.0383,0.14608 -0.19199,0.21513 -0.36122,0.15366 -0.16922,-0.0615 -0.36121,-0.25384 -0.6454,-0.43065 -0.28457,-0.1844 -0.66134,-0.35324 -1.09161,-0.33807 -0.43028,0.0156 -0.90684,0.22311 -1.25287,0.57635 -0.34567,0.35364 -0.56877,0.86093 -0.68411,1.40655 -0.11497,0.54599 -0.12294,1.12993 0.0231,1.76813 0.14608,0.63782 0.43824,1.32951 0.79945,1.83681 0.36122,0.5073 0.79946,0.83019 1.02977,0.93757 0.23828,0.10016 0.27698,-0.0232 0.2307,-0.27661 -0.0463,-0.25384 -0.17682,-0.63781 -0.23829,-0.99145 -0.0615,-0.35361 -0.0539,-0.66893 0.077,-1.01458 0.13052,-0.34604 0.37639,-0.71484 0.72242,-0.93757 0.33807,-0.22311 0.77632,-0.28458 1.26047,-0.14608 0.48415,0.14608 1.022174,0.49933 1.383404,0.99145 0.36121,0.49174 0.53802,1.12197 0.75316,1.59853 0.20755,0.47656 0.44583,0.79945 0.83778,0.98385 0.399911,0.18441 0.960701,0.22311 1.352651,0.14608 0.39993,-0.069 0.63023,-0.25346 0.78428,-0.461 0.15367,-0.20755 0.22272,-0.43065 0.34566,-0.56876 0.13091,-0.1385 0.31531,-0.18478 0.53803,-0.008 0.22311,0.16922 0.46898,0.56117 0.65337,1.00699 0.18441,0.45342 0.29216,0.9683 0.34567,1.28362 0.0539,0.31491 0.0463,0.43026 0.0387,0.5456 h -2.37522 c -0.36121,0 -0.66097,0.29976 -0.66097,0.66097 v 0.59191 c 0,0.36122 0.29976,0.66096 0.66097,0.66096 h 2.36763 c 0,0.31493 0.008,0.62985 -0.14608,0.80818 -0.15367,0.16695 -0.46139,0.19731 -0.85333,0.57673 -0.39195,0.36806 -0.8761,1.08137 -1.05292,1.64293 -0.17681,0.56156 -0.0383,0.95996 -0.11534,1.33938 -0.0766,0.37564 -0.36121,0.72091 -1.05291,1.41147 -0.49972,0.50085 -1.206591,1.1914 -2.044361,1.88577 -0.17681,-0.19352 -0.36919,-0.39461 -0.55359,-0.58433 -1.052914,-1.08517 -2.282644,-2.19309 -3.881564,-3.22893 -1.59852,-1.03963 -3.58141,-2.00718 -5.45692,-2.61426 -1.87513,-0.59949 -3.65087,-0.83854 -5.41862,-0.83854 -1.77534,0 -3.5431,0.23905 -5.064981,0.77782 -1.5143,0.53879 -2.77476,1.37734 -3.85841,2.36764 -1.08363,0.99031 -2.00602,2.12859 -2.55164,3.25929 -0.54562,1.13069 -0.73041,2.25759 -0.74558,3.35794 -0.008,1.09275 0.14608,2.15136 0.36122,2.86088 0.21513,0.69816 0.49173,1.04343 0.69928,1.17244 0.20755,0.14039 0.35363,0.0721 0.35363,-0.28457 0,-0.35287 -0.14608,-0.9979 -0.16923,-1.71881 -0.0228,-0.72471 0.077,-1.52909 0.27699,-2.23863 0.19958,-0.71332 0.49174,-1.328 0.90683,-1.88955 0.41509,-0.56155 0.95312,-1.0624 1.62926,-1.41527 0.67651,-0.35286 1.48356,-0.55396 2.41353,-0.58432 0.92998,-0.0303 1.982901,0.11762 3.228191,0.46291 1.24527,0.34528 2.68255,0.89924 3.75823,1.17623 1.06847,0.27697 1.77572,0.27697 2.44427,0.0607 0.66856,-0.21628 1.29916,-0.63743 1.65242,-1.13069 0.36121,-0.50085 0.45341,-1.0662 0.33844,-1.61258 -0.11534,-0.55396 -0.43065,-1.09274 -0.69967,-1.44561 z m 16.685355,-6.0644 c -0.11383,0.0152 -0.22007,0.0307 -0.28456,-0.1385 -0.0607,-0.16883 -0.0759,-0.53006 -0.17454,-1.22213 -0.10245,-0.6917 -0.27698,-1.72906 -0.60064,-2.71292 -0.31493,-0.98385 -0.77631,-1.90624 -0.922,-2.80549 -0.14608,-0.89924 0.008,-1.77534 0.32251,-2.29022 0.3153,-0.51526 0.79187,-0.68411 1.09768,-0.76872 0.30734,-0.0846 0.44014,-0.077 0.56915,-0.077 0.13279,0 0.2618,0 0.56913,0.077 0.30734,0.0846 0.78542,0.24587 1.10035,0.76872 0.31493,0.51488 0.46669,1.39098 0.32251,2.29022 -0.14797,0.89925 -0.60708,1.82922 -0.92201,2.80549 -0.31492,0.98386 -0.50085,2.01364 -0.59949,2.71292 -0.0987,0.69967 -0.11763,1.0533 -0.17833,1.22213 -0.0607,0.16924 -0.17454,0.15367 -0.28458,0.1385 z m -10.090515,15.58045 c 1.08365,-1.18382 2.25192,-2.37522 3.397024,-3.48314 l 0.29216,-0.28457 c 0.56118,0.63743 1.11438,1.32419 1.621671,2.02993 1.14512,1.60499 2.06751,3.35035 2.61313,4.59487 0.546,1.24453 0.73039,1.99959 0.76872,2.44352 0.0383,0.45532 -0.0691,0.5995 -0.21513,0.62606 -0.14608,0.0228 -0.32289,-0.0873 -0.71484,-0.40219 -0.39196,-0.31493 -0.99146,-0.84613 -1.63724,-1.15346 -0.6454,-0.29975 -1.345071,-0.37564 -1.952161,-0.29217 -0.60708,0.0873 -1.12993,0.3377 -1.468004,0.70954 -0.33049,0.36804 -0.47657,0.85371 -0.46101,1.328 0.0152,0.48566 0.19958,0.95995 0.52247,1.26728 0.315314,0.30735 0.776314,0.45532 1.198994,0.44014 0.42269,-0.0152 0.82261,-0.19351 1.0146,-0.45531 0.191991,-0.26181 0.184391,-0.60709 0.138491,-0.86889 -0.0463,-0.25802 -0.138491,-0.43635 -0.169231,-0.59191 -0.0307,-0.15936 0,-0.29975 0.161261,-0.40599 0.16164,-0.10624 0.44583,-0.17454 0.79945,-0.0303 0.35363,0.14797 0.78391,0.50084 1.2912,1.0548 0.51488,0.55018 1.10679,1.30525 1.47598,2.07169 0.36121,0.77023 0.49173,1.56324 0.5532,2.19309 0.063,0.63745 0.063,1.12311 0.063,1.60498 h -4.436271 c -0.47656,0 -0.86092,0.39081 -0.86092,0.8613 v 0.68297 c 0,0.47808 0.39195,0.8613 0.86092,0.8613 h 4.319411 c 0,0.27699 0,0.56156 -0.0766,1.04723 -0.077,0.48188 -0.23829,1.16104 -0.56118,1.8516 -0.32289,0.68297 -0.80704,1.37354 -1.52188,1.89715 -0.71484,0.5312 -1.65241,0.89165 -2.605531,1.09276 -0.95313,0.20867 -1.921434,0.2542 -2.928444,0.0607 -1.00661,-0.19351 -2.04435,-0.61468 -2.86695,-1.19141 -0.82222,-0.57673 -1.43727,-1.31281 -1.95216,-2.23483 -0.51488,-0.922 -0.92997,-2.03752 -1.17585,-3.21375 -0.24586,-1.17623 -0.32288,-2.41317 -0.2231,-3.68045 0.10017,-1.2711 0.36918,-2.57633 0.67652,-3.72979 0.29975,-1.15346 0.63782,-2.15136 1.30675,-3.24411 0.66855,-1.08895 1.67555,-2.27277 2.76679,-3.45659 z m 4.503824,-4.54934 c 0.737981,-0.70953 1.422091,-1.36215 1.982891,-1.94647 0.83018,-0.86888 1.38377,-1.58221 1.81405,-2.21207 0.43027,-0.62984 0.73001,-1.1914 0.92997,-1.73018 0.19958,-0.54638 0.30582,-1.07758 0.36274,-1.50633 0.0531,-0.44015 0.0607,-0.77783 0.0683,-1.11515 h 0.44392 0.44772 c 0.008,0.33732 0.0152,0.675 0.0683,1.11515 0.0531,0.43634 0.15558,0.96754 0.36046,1.50633 0.2011,0.54638 0.50085,1.10034 0.9296,1.73018 0.43255,0.62986 0.98651,1.34319 1.81366,2.21207 0.56156,0.58432 1.24833,1.24452 1.98441,1.94647 -0.50083,0.58052 -0.95236,1.14967 -1.37732,1.70363 -0.75885,1.00928 -1.40388,1.96165 -1.93509,2.93678 -0.53877,0.96754 -0.95994,1.95405 -1.2521,2.78121 -0.29216,0.83094 -0.4629,1.50633 -0.58433,2.08306 -0.12521,0.58431 -0.1935,1.07757 -0.2542,1.31661 -0.0607,0.24663 -0.12143,0.23525 -0.18593,0.22766 -0.0607,0.008 -0.11383,0.019 -0.18213,-0.22766 -0.0607,-0.24663 -0.14039,-0.7323 -0.25421,-1.31661 -0.12142,-0.58432 -0.28458,-1.2597 -0.58432,-2.08306 -0.29216,-0.82716 -0.72244,-1.81367 -1.25287,-2.78121 -0.53045,-0.96754 -1.17585,-1.9199 -1.93699,-2.93678 -0.42268,-0.55396 -0.876101,-1.13069 -1.375791,-1.70363 z m 7.203061,10.47601 c -0.14798,-0.0266 -0.25422,-0.17833 -0.21628,-0.62606 0.0379,-0.45151 0.22386,-1.19899 0.77025,-2.44352 0.55017,-1.24452 1.46458,-2.98988 2.61046,-4.59487 0.50843,-0.70574 1.0624,-1.3925 1.62395,-2.02993 l 0.29216,0.28457 c 1.13449,1.10792 2.30313,2.29932 3.39589,3.48314 1.08516,1.18382 2.09823,2.36764 2.76602,3.45659 0.6678,1.09275 1.00928,2.09065 1.30904,3.24411 0.29974,1.15346 0.57673,2.45111 0.67537,3.72979 0.0987,1.26728 0.0228,2.50422 -0.22386,3.68045 -0.24663,1.17623 -0.6602,2.29175 -1.17622,3.21375 -0.51603,0.92202 -1.1307,1.6581 -1.95027,2.23483 -0.82335,0.57673 -1.87057,1.00549 -2.86847,1.19141 -1.00549,0.1935 -1.97682,0.14797 -2.92918,-0.0607 -0.95237,-0.20869 -1.88956,-0.56915 -2.60289,-1.09276 -0.71712,-0.52361 -1.19899,-1.21418 -1.5215,-1.89715 -0.32631,-0.68296 -0.48568,-1.36972 -0.56156,-1.8516 -0.0797,-0.48567 -0.0797,-0.76265 -0.0797,-1.04723 h 4.32169 c 0.47428,0 0.8613,-0.39081 0.8613,-0.8613 v -0.68297 c 0,-0.47808 -0.3946,-0.8613 -0.8613,-0.8613 h -4.43551 c 0,-0.48187 0,-0.96753 0.0607,-1.60498 0.0607,-0.63744 0.1935,-1.42286 0.55396,-2.19309 0.36046,-0.76644 0.95996,-1.52151 1.47597,-2.07169 0.51602,-0.55396 0.93719,-0.90683 1.29006,-1.0548 0.35287,-0.14419 0.64503,-0.0759 0.80059,0.0303 0.16316,0.10624 0.19352,0.25422 0.16316,0.40599 -0.0342,0.16316 -0.12522,0.33389 -0.17074,0.59191 -0.0455,0.2618 -0.0531,0.60708 0.13659,0.86889 0.19351,0.2618 0.58432,0.44014 1.01687,0.45531 0.42117,0.0152 0.87647,-0.13279 1.19899,-0.44014 0.31493,-0.30733 0.49705,-0.78921 0.52361,-1.26728 0.0152,-0.48187 -0.12521,-0.96755 -0.4629,-1.328 -0.3301,-0.37184 -0.85372,-0.61468 -1.46839,-0.70954 -0.60709,-0.0835 -1.30523,-0.008 -1.95026,0.29217 -0.64882,0.29975 -1.24832,0.83095 -1.63912,1.15346 -0.39082,0.31492 -0.56915,0.42495 -0.71333,0.40219 z" /><path
         style="fill:#000000;fill-rule:nonzero;stroke:none;stroke-width:0.22778;-inkscape-stroke:none"
         d="m 49.327507,81.975308 c -12.371749,0 -24.743497,0.436667 -37.115246,1.31 l 37.115246,0 111.345733,0 h 37.11525 c -12.37175,-0.873333 -24.7435,-1.31 -37.11525,-1.31 z"
         id="path2"
         transform="translate(-3.755e-4,-0.36806322)" /><path
         style="fill:#000000;stroke:none;stroke-width:0.22778;-inkscape-stroke:none"
         d="m 136.16559,78.966908 c 0,0 1.01119,0.540425 2.83171,1.591506 1.82053,1.051084 1.63471,1.051084 5.52021,1.051084 l -4.54997,1.058095 z"
         id="path4" /><path
         style="fill:#000000;stroke:none;stroke-width:0.22778;-inkscape-stroke:none"
         d="m 73.793135,78.966908 c 0,0 -1.01119,0.540425 -2.83171,1.591506 -1.82053,1.051084 -1.63471,1.051084 -5.52021,1.051084 l 4.54997,1.058095 z"
         id="path5" /></g></g></svg>
