<?xml version="1.0" encoding="UTF-8" standalone="no"?>
<!-- Created with Inkscape (http://www.inkscape.org/) -->

<svg
   width="185.57646mm"
   height="135.86787mm"
   viewBox="0 0 185.57646 135.86787"
   version="1.1"
   id="svg1"
   xml:space="preserve"
   inkscape:version="1.4-dev (d2f5bff49b, 2023-08-30, custom)"
   sodipodi:docname="title.svg"
   xmlns:inkscape="http://www.inkscape.org/namespaces/inkscape"
   xmlns:sodipodi="http://sodipodi.sourceforge.net/DTD/sodipodi-0.dtd"
   xmlns="http://www.w3.org/2000/svg"
   xmlns:svg="http://www.w3.org/2000/svg"><sodipodi:namedview
     id="namedview1"
     pagecolor="#ffffff"
     bordercolor="#000000"
     borderopacity="0.25"
     inkscape:showpageshadow="2"
     inkscape:pageopacity="0.0"
     inkscape:pagecheckerboard="0"
     inkscape:deskcolor="#d1d1d1"
     inkscape:document-units="mm"
     inkscape:zoom="0.93370003"
     inkscape:cx="513.01273"
     inkscape:cy="395.20187"
     inkscape:window-width="1920"
     inkscape:window-height="1027"
     inkscape:window-x="0"
     inkscape:window-y="0"
     inkscape:window-maximized="1"
     inkscape:current-layer="layer1"
     showgrid="false" /><defs
     id="defs1"><inkscape:path-effect
       effect="taper_stroke"
       id="path-effect7"
       is_visible="true"
       lpeversion="1"
       stroke_width="1.31"
       subpath="1"
       attach_start="0.2"
       end_offset="0.2"
       start_smoothing="0.5"
       end_smoothing="0.5"
       jointype="extrapolated"
       start_shape="right"
       end_shape="right"
       miter_limit="100" /><inkscape:path-effect
       effect="taper_stroke"
       id="path-effect2"
       is_visible="true"
       lpeversion="1"
       stroke_width="1.31"
       subpath="1"
       attach_start="0.2"
       end_offset="0.2"
       start_smoothing="0.5"
       end_smoothing="0.5"
       jointype="extrapolated"
       start_shape="right"
       end_shape="right"
       miter_limit="100" /><style
       id="style3135"
       type="text/css" /><style
       id="style3135-6"
       type="text/css" /><inkscape:path-effect
       effect="fill_between_many"
       method="bsplinespiro"
       autoreverse="false"
       close="false"
       join="false"
       linkedpaths="#path2,0,1"
       id="path-effect3"
       is_visible="true"
       lpeversion="0" /></defs><g
     inkscape:label="Layer 1"
     inkscape:groupmode="layer"
     id="layer1"
     transform="translate(-12.211657,-25.787088)"><g
       id="g8"
       inkscape:label="bottom"
       transform="translate(0,-15.666783)"><path
         id="path6"
         style="fill:#000000;fill-rule:nonzero;stroke:none;stroke-width:1.31;-inkscape-stroke:none"
         d="M 12.212033,83.285385 C 24.583782,82.412051 36.955849,81.975387 49.327597,81.975387 H 89.39957 v 1.309998 H 49.327597 Z m 108.389247,0 v -1.309998 h 40.07198 c 12.37174,0 24.74329,0.436664 37.11504,1.309998 h -37.11504 z"
         transform="matrix(1,0,0,-1,-3.755e-4,205.63864)" /><path
         id="path3255"
         d="m 104.99808,121.22492 c -2.3e-4,0.55057 -1.23223,1.19179 -1.42194,1.57616 -0.18706,0.38474 -0.29255,0.52816 -0.4132,0.59608 -0.12824,0.0679 -0.27167,0.0527 -0.46024,-0.11307 -0.18857,-0.1586 -0.4223,-0.47543 -0.69397,-0.82222 -0.2713,-0.3468 -0.58052,-0.72395 -0.90493,-1.00321 -0.32443,-0.27888 -0.64845,-0.45228 -1.09352,-0.52019 -0.437485,-0.0679 -0.988035,-0.0228 -1.501025,0.14304 -0.51261,0.17377 -0.98803,0.46782 -1.47067,0.92769 -0.48262,0.45267 -0.97284,1.06355 -1.43271,1.50861 -0.46025,0.4447 -0.89014,0.71637 -1.35001,0.8522 -0.46025,0.12825 -0.95806,0.12065 -1.39554,-0.0603 -0.43709,-0.1734 -0.82183,-0.52057 -1.04836,-0.93529 -0.22614,-0.41471 -0.29405,-0.89735 -0.25611,-1.32725 0.0376,-0.43747 0.18858,-0.82222 0.32404,-1.13903 0.13583,-0.32404 0.26407,-0.58052 0.19616,-0.70878 -0.0679,-0.13583 -0.33162,-0.14341 -0.66363,0.03 -0.33958,0.1734 -0.74671,0.53577 -1.06353,0.97286 -0.31683,0.43749 -0.54296,0.95805 -0.64085,1.52379 -0.0983,0.56535 -0.0679,1.17622 0.13583,1.81745 0.20338,0.64124 0.58053,1.30486 1.00283,1.82506 0.41471,0.52058 0.87496,0.89013 1.38794,1.1766 0.50503,0.28647 1.06316,0.49023 1.65925,0.59571 0.5957,0.10586 1.23655,0.12066 1.83263,0 0.59571,-0.12066 1.14625,-0.36957 1.67404,-0.76911 0.52817,-0.39991 1.03357,-0.95046 1.44828,-1.35 0.41471,-0.39992 0.73153,-0.64123 1.12387,-0.76948 0.391945,-0.12787 0.852195,-0.14304 1.251735,-0.0148 0.39233,0.12825 0.71636,0.38436 0.94288,0.83702 0.22614,0.45266 0.3468,1.08592 0.33921,1.80266 0,0.71636 -0.12825,1.50823 -0.42231,2.549 -0.29405,1.04078 -0.7543,2.33045 -1.4479,3.60533 -0.11307,0.21096 -0.24131,0.4223 -0.36956,0.63326 -0.528165,-0.70877 -1.101105,-1.38757 -1.779895,-2.00604 -0.73914,-0.6712 -1.6141,-1.2597 -2.80587,-1.88537 -1.19141,-0.62606 -2.71482,-1.28968 -4.23101,-1.76511 -1.51581,-0.46745 -3.01684,-0.7467 -4.36684,-0.71635 -1.35,0.03 -2.54899,0.35439 -3.64251,0.96526 -1.0935,0.61088 -2.07395,1.49343 -2.68483,2.34563 -0.61125,0.85219 -0.83739,1.67441 -0.87496,2.50384 -0.038,0.82981 0.12065,1.67442 0.36956,2.39837 0.24132,0.72395 0.57294,1.32761 0.83702,1.59132 0.26409,0.26409 0.46024,0.18099 0.51299,-0.03 0.0527,-0.21134 -0.0379,-0.55055 -0.11307,-0.93529 -0.0679,-0.37715 -0.12066,-0.79186 -0.0455,-1.26692 0.0755,-0.47542 0.27167,-1.0032 0.57331,-1.47065 0.30165,-0.46784 0.70877,-0.86738 1.22176,-1.20696 0.51299,-0.33922 1.12387,-0.6033 1.74992,-0.6033 0.62568,0 1.26692,0.27167 1.90056,0.65603 0.62568,0.38475 1.24414,0.88256 1.80228,1.23694 0.55055,0.34717 1.04077,0.54297 1.58411,0.59608 0.54297,0.0452 1.14626,-0.0531 1.60613,-0.2565 0.46782,-0.20375 0.80703,-0.51298 1.01838,-0.9201 0.21096,-0.40751 0.30923,-0.90532 0.25649,-1.32763 -0.0455,-0.41471 -0.24131,-0.75392 -0.33958,-1.01041 -0.0979,-0.2565 -0.11307,-0.43748 -0.0376,-0.52816 0.0755,-0.0979 0.24131,-0.10549 0.72395,0.0152 0.48264,0.12066 1.28209,0.37715 2.14187,0.87496 0.85979,0.49781 1.78749,1.22935 2.66244,2.1267 0.46747,0.47542 0.91253,0.99561 1.34243,1.55375 -0.50541,0.72395 -1.05596,1.42552 -1.6141,2.08914 -0.95009,1.13145 -1.91572,2.14187 -2.90376,3.09954 -0.98044,0.96565 -1.98326,1.87817 -3.06198,2.7076 -1.07834,0.82981 -2.22459,1.56893 -3.18264,2.1119 -0.95768,0.55055 -1.72716,0.90493 -2.42075,1.16143 -0.69398,0.25651 -1.31245,0.41624 -1.72717,0.45419 -0.41508,0.0379 -0.62605,-0.0379 -0.70915,-0.14419 -0.0827,-0.0986 -0.03,-0.2269 0.12067,-0.43066 0.15101,-0.21134 0.4075,-0.49781 0.60328,-0.90493 0.19617,-0.39992 0.32441,-0.92012 0.29444,-1.4407 -0.0304,-0.52778 -0.21134,-1.06315 -0.52817,-1.50063 -0.31682,-0.43748 -0.76909,-0.77708 -1.28967,-0.95806 -0.5202,-0.18857 -1.10869,-0.22614 -1.74954,-0.13583 -0.64124,0.0831 -1.3352,0.29443 -2.1119,0.59608 -0.7691,0.30164 -1.62129,0.70877 -2.23256,0.98045 -0.61088,0.27128 -0.98043,0.40712 -1.51581,0.39953 -0.53537,-0.008 -1.22935,-0.15063 -1.79507,-0.46746 -0.56535,-0.30923 -0.99525,-0.79186 -1.20659,-1.12386 -0.21134,-0.33921 -0.19616,-0.53538 -0.0527,-0.73912 0.14341,-0.20338 0.42988,-0.42231 0.91252,-0.65604 0.48263,-0.24131 1.1766,-0.51299 1.78748,-0.89013 0.61088,-0.38437 1.15385,-0.87459 1.50823,-1.38758 0.36197,-0.51299 0.54334,-1.03318 0.53575,-1.47067 -0.008,-0.43748 -0.20375,-0.77668 -0.64882,-0.98043 -0.44507,-0.20376 -1.14626,-0.26408 -1.81745,-0.0979 -0.67881,0.16581 -1.33483,0.55055 -1.9461,1.02559 -0.60329,0.47505 -1.15384,1.04836 -1.56855,1.59133 -0.41471,0.55055 -0.69397,1.07075 -0.8522,1.65924 -0.158216,0.58811 -0.188576,1.23693 -0.0907,1.91574 0.0983,0.67879 0.324406,1.39514 0.716736,2.14186 0.39195,0.74671 0.95009,1.53099 1.65165,2.11153 0.70877,0.58089 1.56097,0.94857 2.47388,1.14587 0.91252,0.19731 1.88537,0.22766 2.58656,0.26561 0.70155,0.0455 1.13903,0.10624 1.39553,0.16315 0.25649,0.0607 0.33921,0.129 0.36956,0.31113 0.0376,0.17454 0.03,0.4667 0.0827,0.75506 0.0455,0.28457 0.15101,0.57294 0.34717,0.77403 0.19578,0.2049 0.48264,0.31872 0.68601,0.41738 0.20375,0.0986 0.31682,0.16695 0.30202,0.28457 -0.0152,0.12141 -0.16618,0.29595 -0.53575,0.47049 -0.36957,0.17074 -0.97285,0.33769 -1.54617,0.45911 -0.57294,0.11383 -1.11589,0.18212 -1.9533,0.0986 -0.83702,-0.0835 -1.97605,-0.31112 -2.86581,-0.58052 -0.89014,-0.27318 -1.53099,-0.5957 -2.05878,-1.00549 -0.52817,-0.3984 -0.94288,-0.88027 -1.21455,-1.14586 -0.2713,-0.25423 -0.39195,-0.28457 -0.527776,-0.18972 -0.13584,0.0986 -0.27927,0.3263 -0.39234,0.65642 -0.11307,0.34148 -0.19616,0.7854 -0.18857,1.23693 0.008,0.45532 0.0983,0.91442 0.30924,1.31282 0.21134,0.40219 0.535746,0.75506 0.912516,0.95995 0.38474,0.20869 0.82222,0.26939 1.07872,0.32252 0.25648,0.0455 0.33161,0.0835 0.35438,0.15177 0.0228,0.0683 0,0.18212 -0.18858,0.34528 -0.18857,0.16694 -0.54295,0.3946 -0.90494,0.74748 -0.36196,0.35665 -0.72395,0.83853 -1.010786,1.32798 -0.27888,0.48947 -0.47505,0.97893 -0.53538,1.28248 -0.0603,0.29974 0.0152,0.40598 0.31683,0.48187 0.30165,0.0759 0.844606,0.12901 1.417926,0.11382 0.57331,-0.0152 1.1766,-0.0986 1.71197,-0.24282 0.53538,-0.14798 1.00321,-0.36806 1.22176,-0.38323 0.22614,-0.0152 0.20375,0.17454 0.11307,0.44393 -0.0903,0.27319 -0.2489,0.62606 -0.3468,0.9979 -0.0983,0.36804 -0.13583,0.75127 -0.0228,1.17623 0.11307,0.42116 0.37716,0.88785 0.74671,1.30143 0.36957,0.41737 0.85219,0.77783 1.32003,0.99031 0.45987,0.22006 0.90494,0.29216 1.09352,0.19731 0.18857,-0.0911 0.12824,-0.34908 0.0603,-0.76265 -0.0679,-0.41738 -0.15102,-0.99032 -0.13584,-1.63155 0.0152,-0.63743 0.12825,-1.33938 0.29405,-2.01856 0.1662,-0.67918 0.38474,-1.33559 0.70157,-2.02235 0.31682,-0.68676 0.72395,-1.41147 1.13867,-1.96164 0.41471,-0.55018 0.83739,-0.93339 1.20696,-1.20659 0.36955,-0.2618 0.68601,-0.41357 0.89735,-0.48187 0.21134,-0.0759 0.31681,-0.0759 0.3392,0.0152 0.0303,0.0835 -0.0224,0.25801 -0.0451,0.43634 -0.0224,0.17454 -0.0152,0.36426 0.0379,0.52741 0.0527,0.16695 0.15063,0.31113 0.32403,0.45532 0.1734,0.13279 0.43748,0.2618 0.56573,0.41357 0.13583,0.14418 0.14342,0.30734 0.0831,0.51222 -0.0679,0.19731 -0.21134,0.42876 -0.48262,0.74748 -0.2641,0.31493 -0.64884,0.72471 -1.03356,1.35077 -0.38437,0.63364 -0.76911,1.49115 -0.97287,2.35245 -0.20337,0.85751 -0.21855,1.71122 -0.0451,2.54976 0.18098,0.83474 0.55055,1.64292 0.98045,2.30692 0.42989,0.65641 0.91252,1.16864 1.54617,1.64292 0.63365,0.47809 1.42551,0.91443 2.23217,1.17623 0.80704,0.2656 1.64445,0.35666 2.29288,0.23524 0.65604,-0.12141 1.13146,-0.4591 1.38795,-0.80059 0.25611,-0.33769 0.28647,-0.67918 0.14304,-0.80439 -0.13583,-0.129 -0.44507,-0.0455 -0.79186,0.0379 -0.3468,0.0797 -0.73913,0.14797 -1.18419,0.11003 -0.4447,-0.0455 -0.93491,-0.2011 -1.33483,-0.51981 -0.39954,-0.31493 -0.69398,-0.78921 -0.85978,-1.29006 -0.15823,-0.48947 -0.18858,-0.9941 -0.0679,-1.49116 0.11307,-0.48945 0.36957,-0.96753 0.78428,-1.457 0.4151,-0.48187 0.98045,-0.97892 1.54617,-1.47597 0.56574,-0.50085 1.11628,-0.9979 1.531,-1.47219 0.4075,-0.46669 0.67121,-0.91441 0.78465,-1.41905 0.11307,-0.50464 0.0675,-1.07758 -0.0907,-1.58981 -0.15822,-0.50464 -0.4223,-0.95237 -0.7543,-1.29764 -0.33162,-0.35287 -0.72395,-0.61088 -1.15384,-0.74748 -0.43748,-0.13659 -0.91253,-0.14418 -1.20659,-0.1973 -0.30164,-0.0569 -0.4223,-0.16315 -0.2489,-0.36805 0.1734,-0.19729 0.63365,-0.48187 1.34242,-0.94098 0.70876,-0.4553 1.65924,-1.08137 2.56417,-1.73778 0.89772,-0.65261 1.74993,-1.34697 2.881,-2.4496 1.13145,-1.10869 2.54938,-2.6245 3.81628,-4.17067 1.2673,-1.54579 2.37561,-3.10713 3.3109,-4.50229 0.27925,-0.42231 0.542959,-0.82222 0.791859,-1.21456 0.0831,0.12826 0.1662,0.26409 0.24133,0.39234 0.69396,1.15383 1.23693,2.39836 1.61408,3.67286 0.37714,1.27449 0.5809,2.59452 0.79187,3.90697 h -1.59133 c -0.96526,0 -1.757129,0.79186 -1.757129,1.75714 v 1.10148 c 0,0.96375 0.791869,1.75676 1.757129,1.75676 h 1.84023 c 0.0527,0.0152 0.11496,0.0228 0.14911,0.0759 0.0379,0.0531 0.0607,0.1366 0,0.2618 -0.0584,0.12143 -0.19426,0.28078 -0.4056,0.49326 -0.20338,0.20869 -0.48264,0.48187 -0.69361,0.75886 -0.21892,0.28078 -0.37714,0.57673 -0.51298,0.87648 -0.12824,0.31113 -0.23372,0.62606 -0.33921,0.82336 -0.10585,0.1935 -0.22651,0.2618 -0.33958,0.25421 -0.11307,-0.008 -0.22614,-0.0835 -0.41471,-0.22386 -0.19617,-0.14418 -0.47505,-0.35666 -0.80705,-0.48567 -0.331999,-0.12521 -0.723949,-0.17074 -1.153849,-0.10244 -0.42988,0.0721 -0.89013,0.2618 -1.31243,0.535 -0.42231,0.26939 -0.79946,0.62605 -1.07834,1.10792 -0.27926,0.48188 -0.45266,1.08516 -0.55054,1.68087 -0.0907,0.5957 -0.10587,1.18382 -0.0531,1.80228 0.0531,0.61847 0.1586,1.27488 0.37715,1.93888 0.21893,0.664 0.54334,1.34318 0.77707,1.91611 0.23373,0.56534 0.38436,1.02445 0.36956,1.51771 -0.0152,0.48187 -0.19616,0.99411 -0.53575,1.41527 -0.34679,0.42496 -0.85979,0.75506 -1.38757,0.90683 -0.52778,0.14799 -1.06353,0.12901 -1.5234,0 -0.46025,-0.129 -0.83739,-0.36425 -1.12386,-0.67917 -0.28647,-0.31872 -0.47505,-0.70953 -0.61848,-1.03963 -0.14304,-0.32631 -0.2489,-0.58433 -0.38474,-0.48568 -0.13545,0.10624 -0.30923,0.56535 -0.32402,1.23695 -0.0152,0.66399 0.11307,1.53288 0.49022,2.3183 0.37715,0.78161 0.99562,1.47597 1.74954,2.06408 0.75431,0.58813 1.64406,1.06999 2.50385,1.34318 0.85978,0.27319 1.682,0.33011 2.28529,0.30734 0.60329,-0.019 0.98045,-0.12522 1.30486,-0.29975 0.324409,-0.18212 0.580889,-0.42875 0.769089,-0.55017 0.18857,-0.12142 0.30924,-0.11383 0.332,-0.008 0.0304,0.10623 -0.03,0.31492 -0.0979,0.60328 -0.0679,0.28458 -0.14342,0.65641 -0.10585,1.15346 0.0303,0.49706 0.17377,1.13829 0.55812,2.01477 0.38475,0.87268 1.01081,1.98061 1.45587,2.68256 0.4447,0.70194 0.70118,0.9903 0.97968,1.19899 0.28838,0.21248 0.59571,0.35666 0.81578,0.42496 0.21627,0.0683 0.34528,0.0683 0.47428,0.0683 0.12901,0 0.25801,0 0.47428,-0.0683 0.22008,-0.0683 0.52741,-0.21248 0.81578,-0.42496 0.28457,-0.20869 0.54258,-0.49705 0.97892,-1.19899 0.44773,-0.70195 1.07378,-1.80988 1.45701,-2.68256 0.38322,-0.87648 0.5274,-1.51013 0.55775,-2.01477 0.0304,-0.49705 -0.0379,-0.86888 -0.10623,-1.15346 -0.0683,-0.28836 -0.12901,-0.49705 -0.0987,-0.60328 0.0303,-0.10624 0.14417,-0.11384 0.33389,0.008 0.18972,0.12142 0.45152,0.36805 0.77024,0.55017 0.32251,0.17453 0.69814,0.28077 1.30523,0.29975 0.60329,0.0228 1.42286,-0.0341 2.28416,-0.30734 0.85751,-0.27319 1.74916,-0.75505 2.50422,-1.34318 0.75127,-0.58811 1.36974,-1.29005 1.74917,-2.06408 0.37563,-0.78542 0.51223,-1.65431 0.48946,-2.3183 -0.0152,-0.66401 -0.18971,-1.13071 -0.3225,-1.23695 -0.1366,-0.10624 -0.24284,0.15177 -0.38702,0.48568 -0.14419,0.32251 -0.3377,0.72091 -0.61847,1.03963 -0.28457,0.31492 -0.66401,0.55017 -1.12312,0.67917 -0.4591,0.12901 -0.99409,0.14799 -1.5215,0 -0.5312,-0.15177 -1.04343,-0.48187 -1.3887,-0.90683 -0.34908,-0.42116 -0.51982,-0.9334 -0.535,-1.41527 -0.0152,-0.48567 0.12521,-0.94477 0.36805,-1.51771 0.23525,-0.56535 0.55775,-1.24453 0.77783,-1.91611 0.21627,-0.664 0.3225,-1.32041 0.37563,-1.93888 0.0531,-0.61846 0.0379,-1.20658 -0.0531,-1.80228 -0.0911,-0.59571 -0.26939,-1.19899 -0.55017,-1.68087 -0.27697,-0.48187 -0.6564,-0.83853 -1.07757,-1.10792 -0.42116,-0.2732 -0.89165,-0.46291 -1.31282,-0.535 -0.42875,-0.0759 -0.82336,-0.0228 -1.15346,0.10244 -0.33389,0.12901 -0.61088,0.34149 -0.80819,0.48567 -0.1935,0.14039 -0.29974,0.21628 -0.41357,0.22386 -0.11383,0.008 -0.22765,-0.0607 -0.34148,-0.25421 -0.10245,-0.1973 -0.20869,-0.51223 -0.3377,-0.82336 -0.129,-0.30734 -0.29216,-0.5957 -0.51222,-0.87648 -0.22007,-0.27699 -0.48947,-0.55017 -0.69436,-0.75886 -0.20489,-0.21248 -0.34528,-0.37183 -0.40599,-0.49326 -0.0607,-0.11762 -0.0379,-0.20868 0,-0.2618 0.0379,-0.0531 0.0949,-0.0607 0.14799,-0.0759 h 1.84022 c 0.96753,0 1.76054,-0.79301 1.76054,-1.75676 v -1.10148 c 0,-0.96528 -0.79301,-1.75714 -1.76054,-1.75714 h -1.58981 c 0.21248,-1.31245 0.41358,-2.62488 0.793,-3.90697 0.37564,-1.2745 0.91822,-2.51903 1.60499,-3.67286 0.0759,-0.13584 0.15935,-0.26408 0.24284,-0.39234 0.24663,0.39234 0.51222,0.79946 0.78921,1.21456 0.93718,1.39516 2.04511,2.9637 3.31241,4.50229 1.26728,1.54617 2.68634,3.06198 3.81703,4.17067 1.1307,1.11022 1.98442,1.79699 2.87986,2.4496 0.89925,0.65641 1.85541,1.28248 2.56495,1.73778 0.70952,0.45153 1.17622,0.7361 1.34317,0.94098 0.17074,0.19731 0.0455,0.31114 -0.25042,0.36805 -0.29975,0.0607 -0.77784,0.0607 -1.20658,0.1973 -0.43635,0.1366 -0.82336,0.4022 -1.15346,0.74748 -0.33011,0.35286 -0.59571,0.793 -0.75506,1.29764 -0.15937,0.50464 -0.19352,1.07758 -0.0911,1.58981 0.11382,0.50464 0.37183,0.95236 0.78542,1.41905 0.40598,0.4667 0.96754,0.97134 1.53288,1.47219 0.56535,0.49705 1.1307,0.9941 1.54427,1.47597 0.41359,0.48187 0.67159,0.96755 0.78542,1.457 0.11383,0.48947 0.0911,0.99411 -0.0683,1.49116 -0.15935,0.49325 -0.45911,0.96754 -0.8613,1.29006 -0.3984,0.31871 -0.88785,0.47428 -1.33559,0.51981 -0.44392,0.0455 -0.83474,-0.0304 -1.18381,-0.11003 -0.34528,-0.0835 -0.65641,-0.16695 -0.78921,-0.0379 -0.13659,0.12521 -0.10623,0.4667 0.14038,0.80439 0.25801,0.34149 0.73231,0.67918 1.38872,0.80059 0.6564,0.12142 1.48735,0.0304 2.29174,-0.23524 0.80818,-0.2618 1.60119,-0.70574 2.23483,-1.17623 0.63365,-0.47428 1.11552,-0.97892 1.54427,-1.64292 0.43255,-0.65642 0.80059,-1.47218 0.98273,-2.30692 0.17073,-0.83854 0.15556,-1.69225 -0.0455,-2.54976 -0.2049,-0.8613 -0.58811,-1.71881 -0.97513,-2.35245 -0.38322,-0.63365 -0.76644,-1.03584 -1.03204,-1.35077 -0.26181,-0.31872 -0.41358,-0.55017 -0.48188,-0.74748 -0.0683,-0.1973 -0.0531,-0.36045 0.0835,-0.51222 0.1366,-0.14419 0.39082,-0.2732 0.56535,-0.41357 0.17454,-0.1366 0.2694,-0.28837 0.32252,-0.45532 0.0531,-0.16315 0.0607,-0.34529 0.0379,-0.52741 -0.0228,-0.17074 -0.0683,-0.34527 -0.0455,-0.43634 0.0304,-0.0835 0.12901,-0.0835 0.34148,-0.0152 0.20869,0.0759 0.52741,0.22007 0.89545,0.48187 0.37185,0.26561 0.79301,0.64883 1.20659,1.20659 0.41737,0.55017 0.82336,1.27488 1.13828,1.96164 0.31872,0.68676 0.53879,1.34317 0.70195,2.02235 0.16695,0.67918 0.27318,1.38113 0.29595,2.01856 0.0152,0.64123 -0.0683,1.21417 -0.1366,1.63155 -0.0683,0.41357 -0.129,0.67158 0.0607,0.76265 0.18971,0.0873 0.62606,0.0152 1.09275,-0.19731 0.45911,-0.22007 0.94479,-0.58053 1.32042,-0.99031 0.36804,-0.41358 0.63365,-0.87268 0.74747,-1.30143 0.11383,-0.42496 0.0759,-0.80819 -0.0228,-1.17623 -0.0986,-0.37184 -0.25801,-0.72471 -0.34907,-0.9979 -0.0873,-0.26939 -0.10244,-0.4591 0.11382,-0.44393 0.22767,0.0152 0.68678,0.23525 1.22176,0.38323 0.535,0.15177 1.13829,0.22765 1.71123,0.24282 0.57673,0.0152 1.11172,-0.0303 1.41906,-0.11382 0.30354,-0.0759 0.37943,-0.18213 0.31872,-0.48187 -0.0607,-0.30355 -0.25801,-0.79301 -0.535,-1.28248 -0.28078,-0.48945 -0.64882,-0.97133 -1.01307,-1.32798 -0.36046,-0.35288 -0.71712,-0.58054 -0.90304,-0.74748 -0.18971,-0.16316 -0.21248,-0.27699 -0.18971,-0.34528 0.0228,-0.0683 0.0986,-0.0987 0.35287,-0.15177 0.25801,-0.0455 0.69435,-0.11383 1.08137,-0.32252 0.38322,-0.21248 0.70573,-0.55776 0.91062,-0.95995 0.21249,-0.3984 0.30354,-0.8575 0.31114,-1.31282 0.008,-0.45153 -0.0759,-0.89545 -0.18972,-1.23693 -0.11383,-0.3377 -0.25801,-0.56536 -0.3908,-0.65642 -0.1366,-0.0949 -0.25802,-0.0645 -0.53121,0.18972 -0.2694,0.25801 -0.68297,0.73988 -1.21417,1.14586 -0.52741,0.40221 -1.16863,0.72471 -2.0565,1.00549 -0.89166,0.2694 -2.02994,0.49705 -2.86848,0.58052 -0.83474,0.0835 -1.38491,0.0228 -1.95026,-0.0986 -0.57294,-0.11384 -1.17243,-0.28837 -1.54807,-0.45911 -0.36804,-0.17454 -0.51981,-0.34149 -0.53499,-0.47049 -0.0152,-0.11762 0.0986,-0.19352 0.29975,-0.28457 0.20489,-0.0987 0.49325,-0.21248 0.68677,-0.41738 0.1973,-0.20109 0.30354,-0.48946 0.34908,-0.77403 0.0455,-0.28836 0.0455,-0.57294 0.0835,-0.75506 0.0379,-0.17454 0.11003,-0.24284 0.36804,-0.31113 0.25801,-0.0569 0.69435,-0.12521 1.3963,-0.16315 0.70193,-0.0455 1.67327,-0.0683 2.5877,-0.26561 0.91062,-0.1973 1.77193,-0.57256 2.47386,-1.14587 0.70574,-0.58054 1.25971,-1.35722 1.65052,-2.11153 0.39081,-0.74672 0.61846,-1.46307 0.71712,-2.14186 0.0987,-0.67881 0.0683,-1.32763 -0.0911,-1.91574 -0.15935,-0.58849 -0.43634,-1.10869 -0.85371,-1.65924 -0.41358,-0.55055 -0.96375,-1.11628 -1.56704,-1.59133 -0.60328,-0.47504 -1.26729,-0.85978 -1.94646,-1.02559 -0.67918,-0.1586 -1.37353,-0.0983 -1.81746,0.0979 -0.44394,0.20375 -0.64124,0.54295 -0.64882,0.98043 -0.008,0.43749 0.18212,0.95768 0.53499,1.47067 0.36425,0.51299 0.89925,1.00321 1.51013,1.38758 0.61088,0.38474 1.30523,0.64882 1.7871,0.89013 0.48188,0.24131 0.76644,0.45266 0.91062,0.65604 0.14418,0.20374 0.15937,0.39991 -0.0531,0.73912 -0.20869,0.33958 -0.64124,0.81463 -1.20659,1.12386 -0.56534,0.30924 -1.2597,0.45987 -1.79469,0.46746 -0.53499,0.008 -0.90305,-0.12825 -1.51391,-0.39953 -0.61088,-0.27168 -1.4646,-0.67122 -2.23485,-0.98045 -0.76644,-0.30165 -1.46838,-0.51299 -2.10961,-0.59608 -0.64124,-0.0827 -1.22935,-0.0452 -1.74917,0.13583 -0.5236,0.18858 -0.97513,0.52058 -1.29005,0.95806 -0.31872,0.43748 -0.49705,0.97285 -0.52741,1.50063 -0.0303,0.52817 0.0949,1.04078 0.29216,1.4407 0.19731,0.39954 0.45153,0.69359 0.6033,0.90493 0.15177,0.21134 0.20489,0.332 0.12141,0.43066 -0.0835,0.0987 -0.29595,0.18213 -0.70952,0.14419 -0.41359,-0.0379 -1.03205,-0.19768 -1.7264,-0.45419 -0.69436,-0.2565 -1.4646,-0.61088 -2.42075,-1.16143 -0.95996,-0.55055 -2.11342,-1.28968 -3.18341,-2.1119 -1.07758,-0.82943 -2.07548,-1.74195 -3.06199,-2.7076 -0.97892,-0.96526 -1.94646,-1.96809 -2.90263,-3.09954 -0.55775,-0.66362 -1.10792,-1.36519 -1.61635,-2.08914 0.42495,-0.55814 0.87647,-1.07833 1.34317,-1.55375 0.88406,-0.90494 1.80228,-1.63648 2.66359,-2.1267 0.85751,-0.49781 1.6581,-0.7543 2.13997,-0.87496 0.48567,-0.12066 0.64882,-0.11307 0.72472,-0.0152 0.0759,0.0983 0.0683,0.27166 -0.038,0.52816 -0.0986,0.25649 -0.29216,0.5957 -0.33768,1.01041 -0.0531,0.41509 0.0455,0.92012 0.25421,1.32763 0.21248,0.40712 0.55017,0.71635 1.02066,0.9201 0.4667,0.20339 1.0624,0.30166 1.60499,0.2565 0.54258,-0.0531 1.03203,-0.2417 1.58601,-0.59608 0.55016,-0.3468 1.16863,-0.85219 1.80228,-1.23694 0.62605,-0.38436 1.27108,-0.65603 1.89714,-0.65603 0.62606,0 1.23694,0.27167 1.75295,0.6033 0.51223,0.33958 0.91823,0.73912 1.22176,1.20696 0.29976,0.46745 0.49706,1.00282 0.57294,1.47065 0.0759,0.47506 0.0228,0.88977 -0.0455,1.26692 -0.0683,0.37714 -0.16695,0.72395 -0.11382,0.93529 0.0531,0.21096 0.25042,0.29406 0.51222,0.03 0.2656,-0.26371 0.5957,-0.86737 0.83853,-1.59132 0.23905,-0.72395 0.40599,-1.56856 0.36805,-2.39837 -0.0379,-0.82943 -0.26939,-1.65165 -0.87268,-2.50384 -0.61088,-0.8522 -1.5936,-1.74233 -2.68635,-2.34563 -1.09276,-0.61087 -2.28416,-0.93529 -3.64252,-0.96526 -1.35076,-0.0303 -2.8495,0.2489 -4.36721,0.71635 -1.51772,0.46784 -3.03163,1.13905 -4.23062,1.76511 -1.19141,0.62567 -2.0603,1.21417 -2.80777,1.88537 -0.67539,0.61088 -1.24833,1.29727 -1.77953,2.00604 -0.1252,-0.21096 -0.24662,-0.4223 -0.36804,-0.63326 -0.70194,-1.27488 -1.16105,-2.56455 -1.44941,-3.60533 -0.29216,-1.04077 -0.42117,-1.83264 -0.42117,-2.549 0,-0.71674 0.12142,-1.35 0.3377,-1.80266 0.22765,-0.45266 0.55396,-0.70877 0.94477,-0.83702 0.39081,-0.12824 0.8613,-0.11307 1.25212,0.0148 0.39081,0.12825 0.70952,0.36956 1.1231,0.76948 0.41357,0.39954 0.922,0.95009 1.44941,1.35 0.52741,0.39954 1.07758,0.64845 1.67329,0.76911 0.59569,0.12066 1.23693,0.10586 1.83264,0 0.59569,-0.10548 1.15346,-0.30924 1.6581,-0.59571 0.50464,-0.28647 0.96753,-0.65602 1.3887,-1.1766 0.41357,-0.5202 0.80059,-1.18382 1.00169,-1.82506 0.2049,-0.64123 0.23524,-1.2521 0.1366,-1.81745 -0.0987,-0.56574 -0.32252,-1.0863 -0.64124,-1.52379 -0.31493,-0.43709 -0.7247,-0.79946 -1.0624,-0.97286 -0.34148,-0.17338 -0.5957,-0.15821 -0.664,-0.03 -0.0683,0.13584 0.0607,0.39195 0.1973,0.70878 0.1328,0.32441 0.28457,0.70915 0.32252,1.13903 0.0379,0.4375 -0.0303,0.92012 -0.25422,1.32725 -0.22766,0.41472 -0.61088,0.7543 -1.05102,0.93529 -0.43634,0.1734 -0.93339,0.18858 -1.3925,0.0603 -0.46289,-0.12825 -0.89165,-0.4075 -1.35076,-0.8522 -0.45911,-0.44506 -0.95236,-1.05594 -1.43424,-1.50861 -0.48187,-0.45227 -0.95615,-0.75392 -1.46839,-0.92769 -0.51602,-0.1734 -1.06619,-0.21097 -1.50253,-0.14304 -0.43634,0.0679 -0.77024,0.24131 -1.09276,0.52019 -0.3263,0.27926 -0.63364,0.65641 -0.90683,1.00321 -0.26939,0.34679 -0.50464,0.65602 -0.69435,0.82222 -0.18592,0.15821 -0.33769,0.1734 -0.45911,0.11307 -0.129,-0.0603 -0.22765,-0.20376 -0.41357,-0.59608 -0.18971,-0.38437 -1.42172,-1.02559 -1.42195,-1.57616 0,0 7e-5,0.007 -0.002,0 z m 0.6459,8.13795 c 0.0759,-0.21893 0.0835,-0.40751 0.0986,-0.57331 0.0152,-0.16581 0.0379,-0.30165 0.12141,-0.35438 0.0835,-0.0455 0.22386,-0.008 0.35287,0.30923 0.1366,0.30923 0.2656,0.88976 0.535,1.83263 0.27318,0.94251 0.69435,2.25494 1.28246,3.52186 0.26561,0.56572 0.55776,1.12386 0.89166,1.69718 -0.31872,0.46745 -0.6033,0.93529 -0.85372,1.38756 -0.42116,0.74672 -0.74746,1.44828 -1.06239,2.29289 -0.31872,0.84461 -0.62605,1.82504 -0.83854,2.72999 -0.20868,0.90531 -0.32251,1.71957 -0.42875,2.54179 h -0.73989 -0.73988 c -0.11383,-0.82222 -0.21627,-1.63648 -0.42875,-2.54179 -0.21248,-0.89735 -0.52058,-1.88538 -0.83741,-2.72999 -0.3168,-0.84461 -0.64084,-1.54617 -1.06314,-2.29289 -0.25649,-0.45227 -0.54335,-0.92011 -0.85257,-1.38756 0.33199,-0.57332 0.62605,-1.13146 0.89013,-1.69718 0.58811,-1.26692 1.01079,-2.57935 1.28208,-3.52186 0.26977,-0.94287 0.39878,-1.5234 0.53538,-1.83263 0.13658,-0.30923 0.27318,-0.35477 0.35286,-0.30923 0.0835,0.0527 0.10624,0.18857 0.12142,0.35438 0.0152,0.1658 0.0228,0.35438 0.0986,0.57331 0.0759,0.21856 0.22008,0.46745 0.34149,0.59571 0.11763,0.12824 0.20869,0.12824 0.30735,0.12824 0.0986,0 0.18971,0 0.31112,-0.12824 0.11762,-0.12826 0.2618,-0.37715 0.3377,-0.59571 z m -0.94857,23.3208 c 0.11762,-0.0303 0.20869,-0.0303 0.29974,-0.0228 0.0987,-0.008 0.18972,-0.0152 0.31114,0.0228 0.11762,0.0304 0.25422,0.10624 0.48945,0.58053 0.22388,0.46669 0.55018,1.33558 0.9334,2.4511 0.38702,1.11552 0.83853,2.48146 1.09276,3.5894 0.25801,1.10793 0.31112,1.97682 0.15935,2.72809 -0.15176,0.75506 -0.51222,1.40388 -0.88786,1.80987 -0.37942,0.40978 -0.77024,0.58431 -1.11931,0.66399 -0.34528,0.0835 -0.65262,0.0835 -0.96374,0.0835 -0.30735,0 -0.61848,0 -0.96375,-0.0835 -0.34908,-0.0797 -0.74065,-0.25421 -1.1178,-0.66399 -0.37676,-0.40599 -0.73911,-1.05481 -0.88974,-1.80987 -0.15103,-0.75127 -0.0983,-1.61258 0.15821,-2.72809 0.2565,-1.10794 0.70914,-2.47388 1.09388,-3.5894 0.3836,-1.11552 0.70232,-1.98441 0.93378,-2.4511 0.22765,-0.47049 0.37183,-0.54259 0.49325,-0.58053 z"
         style="fill:#000000;fill-rule:evenodd;stroke:#000000;stroke-width:0.0574682"
         inkscape:connector-curvature="0"
         sodipodi:nodetypes="ccccccccccccccccccccccccccccccsccccccscccccccccscccccccccscccccccccccssccccccccccccscccccccccccccccccscccccccccsccccsscccccccccccsscccccccccccccccccccccccccccccccccccccccscsssscccccccccccccccccccccccccccsccccccccccsccccccsccccccccccscccccsccccccccccccscsssscccccccccccccscccssccccccscccccccsccccccccccccccccccccccccccscccccccccccccccccccccccccscccccsccsccccccccsscsccccccccccccccccscccscccscccccccccscscccscsccscccccccccccccccccccccccccccccccccsccccscsccsccccccccccccscccccccc" /></g><g
       id="g7"
       inkscape:label="top"
       transform="translate(0,-0.52916663)"><path
         id="path3253"
         style="fill:#000000;fill-rule:evenodd;stroke:#000000;stroke-width:0.0585685"
         d="m 88.321385,49.111609 c -0.26902,-0.35288 -0.49174,-0.52361 -0.58393,-0.66779 -0.0922,-0.15558 -0.0615,-0.28457 0.19957,-0.3301 0.26142,-0.0418 0.76873,0.0152 1.65279,0.33768 0.89127,0.3301 2.1673,0.93719 3.3587,1.62775 1.18344,0.69056 2.27506,1.47597 3.51236,2.59908 0.4151,0.37564 0.84537,0.80059 1.28361,1.24453 l -0.10738,0.0835 c -1.27601,0.922 -2.74402,1.73019 -4.21962,2.47007 -1.47598,0.7361 -2.97471,1.41148 -4.25832,2.15136 -1.29119,0.7361 -2.36725,1.54428 -3.25094,2.25002 -0.88406,0.71712 -1.56021,1.33938 -2.16768,2.10582 -0.59949,0.77023 -1.12955,1.68466 -1.46042,2.53838 -0.33807,0.8537 -0.47618,1.63533 -0.47618,2.36004 0.008,0.72091 0.15368,1.36594 0.33808,1.88954 0.1844,0.52362 0.39195,0.91443 0.61467,1.08518 0.2231,0.16694 0.44583,0.10624 0.63023,-0.0949 0.18479,-0.1973 0.33086,-0.52741 0.57673,-0.92202 0.25346,-0.3908 0.60708,-0.84612 1.08365,-1.07377 0.47656,-0.22387 1.07606,-0.21628 1.61408,0 0.53803,0.21248 1.02977,0.63743 1.35267,1.34317 0.32289,0.69814 0.49173,1.67707 0.57635,2.54597 0.0846,0.86508 0.0922,1.62014 0.0307,2.22723 -0.0615,0.60709 -0.18441,1.05482 -0.44584,1.56704 -0.25346,0.51602 -0.6454,1.09275 -1.04494,1.43045 -0.39233,0.33769 -0.79945,0.42876 -1.28361,0.42116 -0.49211,-0.008 -1.06847,-0.12141 -1.49115,-0.36804 -0.43065,-0.24663 -0.70725,-0.62226 -0.78389,-1.07379 -0.077,-0.4553 0.0459,-0.98651 0.12292,-1.43043 0.0766,-0.44774 0.0998,-0.81578 0.0539,-1.07758 -0.0539,-0.26181 -0.1768,-0.406 -0.36918,-0.45911 -0.19199,-0.0455 -0.43785,0.008 -0.84536,0.20488 -0.40751,0.19352 -0.9683,0.53121 -1.41414,0.83096 -0.45341,0.29974 -0.79186,0.57673 -0.8685,0.84612 -0.077,0.2694 0.12293,0.54637 0.2766,0.8613 0.15366,0.31493 0.2766,0.6678 0.29974,0.89925 0.0232,0.23144 -0.0463,0.34528 -0.1768,0.39081 -0.13053,0.0455 -0.3229,0.0152 -0.46898,-0.10624 -0.1457,-0.12522 -0.26105,-0.3377 -0.44544,-0.54637 -0.18479,-0.20869 -0.43825,-0.406 -0.730411,-0.53121 -0.29216,-0.11382 -0.61467,-0.15177 -0.99144,-0.0607 -0.37677,0.0911 -0.79149,0.29976 -1.07605,0.48567 -0.2842,0.18213 -0.4227,0.33011 -0.45342,0.47429 -0.0308,0.14039 0.0539,0.27698 0.19199,0.41736 0.13849,0.1366 0.34604,0.28458 0.45341,0.43635 0.11535,0.15557 0.1309,0.30734 0.10776,0.41358 -0.0307,0.11003 -0.11535,0.16316 -0.24587,0.18592 -0.13091,0.0228 -0.30733,0.0152 -0.47657,-0.0455 -0.16922,-0.0607 -0.32288,-0.17834 -0.51488,-0.28458 -0.19237,-0.10624 -0.41509,-0.20868 -0.63022,-0.26939 -0.21552,-0.0607 -0.40751,-0.0759 -0.92239,0.16315 -0.51489,0.23525 -1.33749,0.72092 -2.09824,1.14209 -0.76112,0.42496 -1.44523,0.793 -1.96771,1.14587 -0.52262,0.35286 -0.86852,0.69435 -1.05298,0.96374 -0.18445,0.26561 -0.19982,0.4667 -0.16908,0.57294 0.0307,0.11003 0.12297,0.1328 0.33819,0.14797 0.2152,0.008 0.56097,0.008 0.90701,0.008 h 34.593596 34.59626 c 0.34528,0 0.69057,0 0.90684,-0.008 0.21628,-0.008 0.29975,-0.0303 0.33769,-0.14797 0.0303,-0.10624 0.0152,-0.30733 -0.17075,-0.57294 -0.18212,-0.26939 -0.52741,-0.61088 -1.05101,-0.96374 -0.52362,-0.35287 -1.20659,-0.72091 -1.96924,-1.14587 -0.75885,-0.42117 -1.58221,-0.91442 -2.09823,-1.14209 -0.51223,-0.23904 -0.70573,-0.22386 -0.92202,-0.16315 -0.21247,0.0607 -0.43634,0.16315 -0.62984,0.26939 -0.19351,0.10624 -0.34529,0.22386 -0.51602,0.28458 -0.16695,0.0607 -0.34528,0.0683 -0.47428,0.0455 -0.13281,-0.0228 -0.21628,-0.0835 -0.24663,-0.18592 -0.0304,-0.10624 -0.008,-0.25801 0.10624,-0.41358 0.11762,-0.15177 0.31491,-0.29975 0.4553,-0.43635 0.1366,-0.14038 0.22386,-0.27697 0.19352,-0.41736 -0.0342,-0.1366 -0.17833,-0.29216 -0.45532,-0.47429 -0.28457,-0.18591 -0.69814,-0.3946 -1.07758,-0.48567 -0.37563,-0.0911 -0.69814,-0.0531 -0.9903,0.0607 -0.29217,0.11762 -0.55397,0.31493 -0.72851,0.53121 -0.18592,0.20867 -0.29216,0.42115 -0.44772,0.54637 -0.14418,0.12141 -0.33769,0.14418 -0.4667,0.10624 -0.1328,-0.0455 -0.2011,-0.15937 -0.17833,-0.39081 0.0228,-0.23145 0.14419,-0.58432 0.29975,-0.89925 0.15557,-0.31493 0.35287,-0.58431 0.27698,-0.8613 -0.0759,-0.27699 -0.41357,-0.54638 -0.86889,-0.84612 -0.45152,-0.29975 -1.01307,-0.63744 -1.41526,-0.83096 -0.406,-0.18971 -0.65262,-0.25041 -0.84613,-0.20488 -0.18971,0.0455 -0.31493,0.1973 -0.36804,0.45911 -0.0531,0.2618 -0.0228,0.62984 0.0531,1.07758 0.0797,0.44392 0.2011,0.97513 0.12522,1.43043 -0.0759,0.45153 -0.36046,0.82716 -0.78542,1.07379 -0.42875,0.24663 -1.00549,0.36045 -1.49115,0.36804 -0.48947,0.008 -0.89166,-0.0835 -1.28247,-0.42116 -0.3984,-0.3377 -0.78542,-0.91443 -1.04722,-1.43045 -0.25042,-0.51222 -0.38323,-0.96754 -0.44393,-1.56704 -0.0607,-0.60709 -0.0531,-1.36215 0.0304,-2.22723 0.0835,-0.8689 0.25421,-1.84783 0.57673,-2.54597 0.32251,-0.69814 0.81576,-1.1231 1.35455,-1.34317 0.535,-0.21628 1.13449,-0.22387 1.61257,0 0.47808,0.22007 0.83095,0.67537 1.08517,1.07377 0.25042,0.39461 0.39081,0.7323 0.57293,0.92202 0.18592,0.2011 0.41738,0.2618 0.63365,0.0949 0.22007,-0.17075 0.42876,-0.56156 0.61468,-1.08518 0.18212,-0.5236 0.3301,-1.17622 0.33768,-1.88954 0,-0.72471 -0.14039,-1.50634 -0.47807,-2.36004 -0.3377,-0.85372 -0.86131,-1.76815 -1.46081,-2.53838 -0.60708,-0.76644 -1.28246,-1.3887 -2.16653,-2.10582 -0.88406,-0.71333 -1.96924,-1.51392 -3.2517,-2.25002 -1.29005,-0.73988 -2.7812,-1.41526 -4.25718,-2.15136 -1.47598,-0.73988 -2.94436,-1.54807 -4.21924,-2.47007 l -0.11003,-0.0835 c 0.44013,-0.44394 0.86889,-0.86889 1.28625,-1.24453 1.23693,-1.12311 2.32969,-1.90852 3.51351,-2.59908 1.18003,-0.69056 2.46628,-1.29765 3.35794,-1.62775 0.89166,-0.3301 1.38871,-0.38702 1.65051,-0.33768 0.26939,0.0379 0.29216,0.17452 0.20109,0.3301 -0.091,0.15177 -0.31493,0.31491 -0.58431,0.66779 -0.26939,0.35287 -0.58432,0.89165 -0.69815,1.44561 -0.11763,0.55398 -0.0228,1.12311 0.33769,1.61258 0.36046,0.50084 0.99031,0.92201 1.65051,1.13069 0.6716,0.21627 1.36974,0.21627 2.44352,-0.0607 1.07758,-0.27699 2.5156,-0.83095 3.76013,-1.17623 1.24453,-0.34529 2.29934,-0.49326 3.22894,-0.46291 0.9296,0.0304 1.74536,0.23905 2.41316,0.58432 0.67539,0.35287 1.21417,0.85372 1.62775,1.41527 0.41736,0.56155 0.71712,1.18382 0.90683,1.88955 0.2011,0.71712 0.29974,1.51392 0.27698,2.23863 -0.0228,0.72091 -0.16695,1.36594 -0.16695,1.71881 0,0.35666 0.14419,0.42496 0.35287,0.28457 0.20869,-0.1366 0.48187,-0.47428 0.69815,-1.17244 0.21627,-0.70193 0.37564,-1.76053 0.36045,-2.86088 -0.008,-1.09275 -0.18971,-2.21966 -0.74367,-3.35794 -0.54637,-1.1307 -1.46839,-2.26898 -2.55355,-3.25929 -1.08137,-0.9903 -2.34107,-1.82885 -3.85499,-2.36764 -1.51771,-0.53877 -3.28965,-0.77782 -5.06537,-0.77782 -1.77572,0 -3.54386,0.23905 -5.42202,0.83854 -1.87438,0.5995 -3.84741,1.57463 -5.45619,2.61426 -1.59739,1.03584 -2.82673,2.14376 -3.88154,3.22893 -0.18972,0.19731 -0.37564,0.39081 -0.55397,0.58433 -0.83474,-0.69437 -1.54427,-1.37734 -2.04133,-1.88577 -0.69435,-0.69814 -0.97892,-1.04343 -1.05481,-1.41147 -0.0759,-0.37942 0.0531,-0.78542 -0.11382,-1.33938 -0.17833,-0.56156 -0.65262,-1.26729 -1.05481,-1.64293 -0.39081,-0.37183 -0.69814,-0.40219 -0.85372,-0.57673 -0.15176,-0.17073 -0.14418,-0.49325 -0.14418,-0.80818 h 2.36764 c 0.36045,0 0.6602,-0.29974 0.6602,-0.66096 v -0.59191 c 0,-0.36121 -0.29975,-0.66097 -0.6602,-0.66097 h -2.37522 c -0.008,-0.11534 -0.0152,-0.23069 0.0379,-0.5456 0.0531,-0.31532 0.17074,-0.8302 0.34528,-1.28362 0.18592,-0.45342 0.43255,-0.83777 0.65262,-1.00699 0.22386,-0.16885 0.40977,-0.12294 0.53879,0.008 0.13279,0.13811 0.20109,0.36121 0.34527,0.56876 0.15556,0.20754 0.38702,0.38398 0.78542,0.461 0.3984,0.0691 0.95995,0.0307 1.35077,-0.14608 0.40219,-0.1844 0.62984,-0.50729 0.83853,-0.98385 0.20869,-0.47656 0.39081,-1.10679 0.75506,-1.59853 0.36046,-0.49212 0.89925,-0.84537 1.38112,-0.99145 0.48567,-0.14608 0.91443,-0.077 1.26349,0.14608 0.33769,0.22273 0.59192,0.59153 0.72092,0.93757 0.129,0.34565 0.13659,0.66097 0.0759,1.01458 -0.0607,0.35364 -0.18971,0.73761 -0.23903,0.99145 -0.0455,0.25346 -0.008,0.37677 0.23144,0.27661 0.23905,-0.0998 0.66779,-0.43027 1.03205,-0.93757 0.36046,-0.5073 0.6602,-1.19899 0.7968,-1.83681 0.14798,-0.6382 0.14039,-1.22214 0.0228,-1.76813 -0.11383,-0.54562 -0.3301,-1.05291 -0.68297,-1.40655 -0.34528,-0.35324 -0.82335,-0.56079 -1.25211,-0.57635 -0.43254,-0.0152 -0.80819,0.16164 -1.09276,0.33807 -0.28457,0.18478 -0.47428,0.36918 -0.64503,0.43065 -0.16694,0.0615 -0.3225,-0.008 -0.36044,-0.15366 -0.038,-0.14608 0.0379,-0.37678 0.0911,-0.60747 0.0531,-0.23828 0.0835,-0.47618 0.0152,-0.7452 -0.0683,-0.26901 -0.23904,-0.56117 -0.38322,-0.83778 -0.15557,-0.27698 -0.28457,-0.52284 -0.42117,-0.62264 -0.14039,-0.10016 -0.27698,-0.0539 -0.60708,0.16126 -0.3339,0.21514 -0.86131,0.59949 -1.25591,1.01459 -0.3908,0.41509 -0.65262,0.85333 -0.81197,1.46042 -0.16316,0.60709 -0.23146,1.38339 -0.51602,1.83681 -0.27699,0.46139 -0.76266,0.59949 -0.97514,0.42269 -0.21628,-0.18441 -0.16315,-0.6917 -0.0721,-1.26806 0.0949,-0.57635 0.22386,-1.22972 0.57672,-1.8368 0.35666,-0.5995 0.9296,-1.15308 1.45321,-1.57577 0.53121,-0.4151 1.01687,-0.69929 1.25971,-1.12235 0.25421,-0.43027 0.26939,-1.00662 0.10244,-1.51392 -0.17074,-0.51488 -0.51603,-0.9607 -0.95237,-1.19899 -0.44013,-0.24586 -0.96375,-0.2766 -1.41526,-0.20755 -0.4629,0.0691 -0.85372,0.25346 -1.06999,0.49971 -0.21248,0.24587 -0.24663,0.5532 -0.38323,0.73761 -0.14796,0.17682 -0.3984,0.2231 -0.58431,0.17682 -0.18592,-0.0459 -0.28458,-0.18441 -0.33769,-0.33049 -0.0455,-0.15366 -0.0379,-0.31493 0.0228,-0.44582 0.0607,-0.12294 0.18592,-0.20755 0.30733,-0.3229 0.12141,-0.11497 0.24663,-0.26105 0.30734,-0.52248 0.0607,-0.26143 0.0683,-0.63781 -0.0228,-0.99903 -0.0986,-0.35362 -0.29974,-0.69208 -0.62226,-0.9148 -0.31493,-0.22273 -0.75506,-0.33807 -1.05482,-0.39195 -0.29974,-0.0615 -0.47428,-0.0615 -0.65261,-0.0615 -0.17453,0 -0.34528,0 -0.65262,0.0615 -0.29974,0.0539 -0.73798,0.16922 -1.05329,0.39195 -0.31492,0.22272 -0.52247,0.55358 -0.62226,0.9148 -0.10017,0.35325 -0.0922,0.7376 -0.0231,0.99903 0.0615,0.26143 0.1844,0.40751 0.30733,0.52248 0.12294,0.11535 0.24587,0.19996 0.30734,0.3229 0.0618,0.12292 0.0694,0.29216 0.0231,0.44582 -0.0459,0.15367 -0.15366,0.28457 -0.33807,0.33049 -0.18439,0.0463 -0.43823,0 -0.58431,-0.17682 -0.1457,-0.17681 -0.17644,-0.49174 -0.38399,-0.73761 -0.21552,-0.24625 -0.60746,-0.43065 -1.06846,-0.49971 -0.46138,-0.0691 -0.983861,-0.0307 -1.414141,0.20755 -0.43824,0.24587 -0.78428,0.6917 -0.95311,1.19899 -0.16924,0.51489 -0.15367,1.09124 0.0998,1.51392 0.25384,0.43065 0.73799,0.70725 1.26047,1.12235 0.530431,0.41509 1.106781,0.96831 1.452821,1.57577 0.35363,0.5995 0.48415,1.25248 0.57636,1.8368 0.0922,0.57636 0.14608,1.09124 -0.0691,1.26806 -0.21513,0.1844 -0.69965,0.0387 -0.97626,-0.42269 -0.2766,-0.461 -0.34565,-1.22972 -0.51489,-1.83681 -0.16125,-0.60709 -0.422681,-1.04533 -0.814631,-1.46042 -0.39194,-0.4151 -0.92239,-0.79945 -1.25287,-1.01459 -0.33048,-0.21514 -0.46897,-0.26142 -0.607084,-0.16126 -0.13849,0.0998 -0.27698,0.35363 -0.42306,0.62264 -0.15367,0.26902 -0.31493,0.56877 -0.38399,0.83778 -0.0694,0.26902 -0.0387,0.51489 0.0152,0.7452 0.0539,0.23828 0.13052,0.46139 0.0922,0.60747 -0.0383,0.14608 -0.19199,0.21513 -0.36122,0.15366 -0.16922,-0.0615 -0.36121,-0.25384 -0.6454,-0.43065 -0.28457,-0.1844 -0.66134,-0.35324 -1.09161,-0.33807 -0.43028,0.0156 -0.90684,0.22311 -1.25287,0.57635 -0.34567,0.35364 -0.56877,0.86093 -0.68411,1.40655 -0.11497,0.54599 -0.12294,1.12993 0.0231,1.76813 0.14608,0.63782 0.43824,1.32951 0.79945,1.83681 0.36122,0.5073 0.79946,0.83019 1.02977,0.93757 0.23828,0.10016 0.27698,-0.0232 0.2307,-0.27661 -0.0463,-0.25384 -0.17682,-0.63781 -0.23829,-0.99145 -0.0615,-0.35361 -0.0539,-0.66893 0.077,-1.01458 0.13052,-0.34604 0.37639,-0.71484 0.72242,-0.93757 0.33807,-0.22311 0.77632,-0.28458 1.26047,-0.14608 0.48415,0.14608 1.022174,0.49933 1.383404,0.99145 0.36121,0.49174 0.53802,1.12197 0.75316,1.59853 0.20755,0.47656 0.44583,0.79945 0.83778,0.98385 0.399911,0.18441 0.960701,0.22311 1.352651,0.14608 0.39993,-0.069 0.63023,-0.25346 0.78428,-0.461 0.15367,-0.20755 0.22272,-0.43065 0.34566,-0.56876 0.13091,-0.1385 0.31531,-0.18478 0.53803,-0.008 0.22311,0.16922 0.46898,0.56117 0.65337,1.00699 0.18441,0.45342 0.29216,0.9683 0.34567,1.28362 0.0539,0.31491 0.0463,0.43026 0.0387,0.5456 h -2.37522 c -0.36121,0 -0.66097,0.29976 -0.66097,0.66097 v 0.59191 c 0,0.36122 0.29976,0.66096 0.66097,0.66096 h 2.36763 c 0,0.31493 0.008,0.62985 -0.14608,0.80818 -0.15367,0.16695 -0.46139,0.19731 -0.85333,0.57673 -0.39195,0.36806 -0.8761,1.08137 -1.05292,1.64293 -0.17681,0.56156 -0.0383,0.95996 -0.11534,1.33938 -0.0766,0.37564 -0.36121,0.72091 -1.05291,1.41147 -0.49972,0.50085 -1.206591,1.1914 -2.044361,1.88577 -0.17681,-0.19352 -0.36919,-0.39461 -0.55359,-0.58433 -1.052914,-1.08517 -2.282644,-2.19309 -3.881564,-3.22893 -1.59852,-1.03963 -3.58141,-2.00718 -5.45692,-2.61426 -1.87513,-0.59949 -3.65087,-0.83854 -5.41862,-0.83854 -1.77534,0 -3.5431,0.23905 -5.064981,0.77782 -1.5143,0.53879 -2.77476,1.37734 -3.85841,2.36764 -1.08363,0.99031 -2.00602,2.12859 -2.55164,3.25929 -0.54562,1.13069 -0.73041,2.25759 -0.74558,3.35794 -0.008,1.09275 0.14608,2.15136 0.36122,2.86088 0.21513,0.69816 0.49173,1.04343 0.69928,1.17244 0.20755,0.14039 0.35363,0.0721 0.35363,-0.28457 0,-0.35287 -0.14608,-0.9979 -0.16923,-1.71881 -0.0228,-0.72471 0.077,-1.52909 0.27699,-2.23863 0.19958,-0.71332 0.49174,-1.328 0.90683,-1.88955 0.41509,-0.56155 0.95312,-1.0624 1.62926,-1.41527 0.67651,-0.35286 1.48356,-0.55396 2.41353,-0.58432 0.92998,-0.0303 1.982901,0.11762 3.228191,0.46291 1.24527,0.34528 2.68255,0.89924 3.75823,1.17623 1.06847,0.27697 1.77572,0.27697 2.44427,0.0607 0.66856,-0.21628 1.29916,-0.63743 1.65242,-1.13069 0.36121,-0.50085 0.45341,-1.0662 0.33844,-1.61258 -0.11534,-0.55396 -0.43065,-1.09274 -0.69967,-1.44561 z m 16.685355,-6.0644 c -0.11383,0.0152 -0.22007,0.0307 -0.28456,-0.1385 -0.0607,-0.16883 -0.0759,-0.53006 -0.17454,-1.22213 -0.10245,-0.6917 -0.27698,-1.72906 -0.60064,-2.71292 -0.31493,-0.98385 -0.77631,-1.90624 -0.922,-2.80549 -0.14608,-0.89924 0.008,-1.77534 0.32251,-2.29022 0.3153,-0.51526 0.79187,-0.68411 1.09768,-0.76872 0.30734,-0.0846 0.44014,-0.077 0.56915,-0.077 0.13279,0 0.2618,0 0.56913,0.077 0.30734,0.0846 0.78542,0.24587 1.10035,0.76872 0.31493,0.51488 0.46669,1.39098 0.32251,2.29022 -0.14797,0.89925 -0.60708,1.82922 -0.92201,2.80549 -0.31492,0.98386 -0.50085,2.01364 -0.59949,2.71292 -0.0987,0.69967 -0.11763,1.0533 -0.17833,1.22213 -0.0607,0.16924 -0.17454,0.15367 -0.28458,0.1385 z m -10.090515,15.58045 c 1.08365,-1.18382 2.25192,-2.37522 3.397024,-3.48314 l 0.29216,-0.28457 c 0.56118,0.63743 1.11438,1.32419 1.621671,2.02993 1.14512,1.60499 2.06751,3.35035 2.61313,4.59487 0.546,1.24453 0.73039,1.99959 0.76872,2.44352 0.0383,0.45532 -0.0691,0.5995 -0.21513,0.62606 -0.14608,0.0228 -0.32289,-0.0873 -0.71484,-0.40219 -0.39196,-0.31493 -0.99146,-0.84613 -1.63724,-1.15346 -0.6454,-0.29975 -1.345071,-0.37564 -1.952161,-0.29217 -0.60708,0.0873 -1.12993,0.3377 -1.468004,0.70954 -0.33049,0.36804 -0.47657,0.85371 -0.46101,1.328 0.0152,0.48566 0.19958,0.95995 0.52247,1.26728 0.315314,0.30735 0.776314,0.45532 1.198994,0.44014 0.42269,-0.0152 0.82261,-0.19351 1.0146,-0.45531 0.191991,-0.26181 0.184391,-0.60709 0.138491,-0.86889 -0.0463,-0.25802 -0.138491,-0.43635 -0.169231,-0.59191 -0.0307,-0.15936 0,-0.29975 0.161261,-0.40599 0.16164,-0.10624 0.44583,-0.17454 0.79945,-0.0303 0.35363,0.14797 0.78391,0.50084 1.2912,1.0548 0.51488,0.55018 1.10679,1.30525 1.47598,2.07169 0.36121,0.77023 0.49173,1.56324 0.5532,2.19309 0.063,0.63745 0.063,1.12311 0.063,1.60498 h -4.436271 c -0.47656,0 -0.86092,0.39081 -0.86092,0.8613 v 0.68297 c 0,0.47808 0.39195,0.8613 0.86092,0.8613 h 4.319411 c 0,0.27699 0,0.56156 -0.0766,1.04723 -0.077,0.48188 -0.23829,1.16104 -0.56118,1.8516 -0.32289,0.68297 -0.80704,1.37354 -1.52188,1.89715 -0.71484,0.5312 -1.65241,0.89165 -2.605531,1.09276 -0.95313,0.20867 -1.921434,0.2542 -2.928444,0.0607 -1.00661,-0.19351 -2.04435,-0.61468 -2.86695,-1.19141 -0.82222,-0.57673 -1.43727,-1.31281 -1.95216,-2.23483 -0.51488,-0.922 -0.92997,-2.03752 -1.17585,-3.21375 -0.24586,-1.17623 -0.32288,-2.41317 -0.2231,-3.68045 0.10017,-1.2711 0.36918,-2.57633 0.67652,-3.72979 0.29975,-1.15346 0.63782,-2.15136 1.30675,-3.24411 0.66855,-1.08895 1.67555,-2.27277 2.76679,-3.45659 z m 4.503824,-4.54934 c 0.737981,-0.70953 1.422091,-1.36215 1.982891,-1.94647 0.83018,-0.86888 1.38377,-1.58221 1.81405,-2.21207 0.43027,-0.62984 0.73001,-1.1914 0.92997,-1.73018 0.19958,-0.54638 0.30582,-1.07758 0.36274,-1.50633 0.0531,-0.44015 0.0607,-0.77783 0.0683,-1.11515 h 0.44392 0.44772 c 0.008,0.33732 0.0152,0.675 0.0683,1.11515 0.0531,0.43634 0.15558,0.96754 0.36046,1.50633 0.2011,0.54638 0.50085,1.10034 0.9296,1.73018 0.43255,0.62986 0.98651,1.34319 1.81366,2.21207 0.56156,0.58432 1.24833,1.24452 1.98441,1.94647 -0.50083,0.58052 -0.95236,1.14967 -1.37732,1.70363 -0.75885,1.00928 -1.40388,1.96165 -1.93509,2.93678 -0.53877,0.96754 -0.95994,1.95405 -1.2521,2.78121 -0.29216,0.83094 -0.4629,1.50633 -0.58433,2.08306 -0.12521,0.58431 -0.1935,1.07757 -0.2542,1.31661 -0.0607,0.24663 -0.12143,0.23525 -0.18593,0.22766 -0.0607,0.008 -0.11383,0.019 -0.18213,-0.22766 -0.0607,-0.24663 -0.14039,-0.7323 -0.25421,-1.31661 -0.12142,-0.58432 -0.28458,-1.2597 -0.58432,-2.08306 -0.29216,-0.82716 -0.72244,-1.81367 -1.25287,-2.78121 -0.53045,-0.96754 -1.17585,-1.9199 -1.93699,-2.93678 -0.42268,-0.55396 -0.876101,-1.13069 -1.375791,-1.70363 z m 7.203061,10.47601 c -0.14798,-0.0266 -0.25422,-0.17833 -0.21628,-0.62606 0.0379,-0.45151 0.22386,-1.19899 0.77025,-2.44352 0.55017,-1.24452 1.46458,-2.98988 2.61046,-4.59487 0.50843,-0.70574 1.0624,-1.3925 1.62395,-2.02993 l 0.29216,0.28457 c 1.13449,1.10792 2.30313,2.29932 3.39589,3.48314 1.08516,1.18382 2.09823,2.36764 2.76602,3.45659 0.6678,1.09275 1.00928,2.09065 1.30904,3.24411 0.29974,1.15346 0.57673,2.45111 0.67537,3.72979 0.0987,1.26728 0.0228,2.50422 -0.22386,3.68045 -0.24663,1.17623 -0.6602,2.29175 -1.17622,3.21375 -0.51603,0.92202 -1.1307,1.6581 -1.95027,2.23483 -0.82335,0.57673 -1.87057,1.00549 -2.86847,1.19141 -1.00549,0.1935 -1.97682,0.14797 -2.92918,-0.0607 -0.95237,-0.20869 -1.88956,-0.56915 -2.60289,-1.09276 -0.71712,-0.52361 -1.19899,-1.21418 -1.5215,-1.89715 -0.32631,-0.68296 -0.48568,-1.36972 -0.56156,-1.8516 -0.0797,-0.48567 -0.0797,-0.76265 -0.0797,-1.04723 h 4.32169 c 0.47428,0 0.8613,-0.39081 0.8613,-0.8613 v -0.68297 c 0,-0.47808 -0.3946,-0.8613 -0.8613,-0.8613 h -4.43551 c 0,-0.48187 0,-0.96753 0.0607,-1.60498 0.0607,-0.63744 0.1935,-1.42286 0.55396,-2.19309 0.36046,-0.76644 0.95996,-1.52151 1.47597,-2.07169 0.51602,-0.55396 0.93719,-0.90683 1.29006,-1.0548 0.35287,-0.14419 0.64503,-0.0759 0.80059,0.0303 0.16316,0.10624 0.19352,0.25422 0.16316,0.40599 -0.0342,0.16316 -0.12522,0.33389 -0.17074,0.59191 -0.0455,0.2618 -0.0531,0.60708 0.13659,0.86889 0.19351,0.2618 0.58432,0.44014 1.01687,0.45531 0.42117,0.0152 0.87647,-0.13279 1.19899,-0.44014 0.31493,-0.30733 0.49705,-0.78921 0.52361,-1.26728 0.0152,-0.48187 -0.12521,-0.96755 -0.4629,-1.328 -0.3301,-0.37184 -0.85372,-0.61468 -1.46839,-0.70954 -0.60709,-0.0835 -1.30523,-0.008 -1.95026,0.29217 -0.64882,0.29975 -1.24832,0.83095 -1.63912,1.15346 -0.39082,0.31492 -0.56915,0.42495 -0.71333,0.40219 z" /><path
         style="fill:#000000;fill-rule:nonzero;stroke:none;stroke-width:0.22778;-inkscape-stroke:none"
         d="m 49.327507,81.975308 c -12.371749,0 -24.743497,0.436667 -37.115246,1.31 l 37.115246,0 111.345733,0 h 37.11525 c -12.37175,-0.873333 -24.7435,-1.31 -37.11525,-1.31 z"
         id="path2"
         sodipodi:nodetypes="cc"
         inkscape:path-effect="#path-effect2"
         inkscape:original-d="M 12.212261,82.630308 H 197.78849"
         inkscape:linked-fill="path3"
         transform="translate(-3.755e-4,-0.36806322)" /><path
         style="fill:#000000;stroke:none;stroke-width:0.22778;-inkscape-stroke:none"
         d="m 136.16559,78.966908 c 0,0 1.01119,0.540425 2.83171,1.591506 1.82053,1.051084 1.63471,1.051084 5.52021,1.051084 l -4.54997,1.058095 z"
         id="path4" /><path
         style="fill:#000000;stroke:none;stroke-width:0.22778;-inkscape-stroke:none"
         d="m 73.793135,78.966908 c 0,0 -1.01119,0.540425 -2.83171,1.591506 -1.82053,1.051084 -1.63471,1.051084 -5.52021,1.051084 l 4.54997,1.058095 z"
         id="path5" /></g><path
       style="font-weight:500;font-size:19.4827px;line-height:1.25;font-family:'Cormorant Garamond';-inkscape-font-specification:'Cormorant Garamond Medium';font-variant-ligatures:discretionary-ligatures;stroke-width:1.12722"
       d="m 30.800013,100.43585 q -0.05845,0 -0.05845,-0.11689 0,-0.1169 0.05845,-0.1169 0.79879,0 1.168962,-0.0974 0.389654,-0.0974 0.526033,-0.370175 0.136379,-0.292241 0.136379,-0.876722 v -9.02049 q 0,-0.564998 -0.116897,-0.798791 -0.116896,-0.253275 -0.448102,-0.331206 -0.311723,-0.07793 -1.032583,-0.07793 -1.207927,0 -1.889822,0.681894 -0.681894,0.662412 -1.0131,2.16258 -0.01948,0.03897 -0.136379,0.03897 -0.09741,0 -0.09741,-0.05845 0.07793,-0.545515 0.175345,-1.772926 0.09741,-1.22741 0.09741,-1.850856 0,-0.09741 0.116896,-0.09741 0.116897,0 0.116897,0.09741 0,0.428619 1.071548,0.428619 1.110514,0.03897 3.916023,0.03897 2.844474,0 3.760161,-0.03897 1.188445,-0.03897 1.967753,-0.545515 0.798791,-0.526033 1.091031,-1.402755 0,-0.05845 0.116896,-0.05845 0.05845,0 0.09741,0.01948 0.05845,0.01948 0.05845,0.05845 v 12.527376 q 0,0.818274 0.233792,1.091032 0.233793,0.253275 0.954653,0.253275 0.05845,0 0.05845,0.1169 0,0.11689 -0.05845,0.11689 -0.487068,0 -0.759826,-0.0195 l -1.071548,-0.0195 -1.091031,0.0195 q -0.272758,0.0195 -0.759826,0.0195 -0.03896,0 -0.03896,-0.11689 0,-0.1169 0.03896,-0.1169 0.72086,0 0.954653,-0.253275 0.233792,-0.272758 0.233792,-1.091032 v -9.95566 q 0,-0.272757 -0.311723,-0.272757 h -3.09775 q -0.72086,0 -1.032583,0.09741 -0.311723,0.07793 -0.428619,0.331206 -0.116896,0.253275 -0.116896,0.818273 v 8.981525 q 0,0.603964 0.116896,0.876722 0.136379,0.272755 0.50655,0.370175 0.370171,0.0974 1.188445,0.0974 0.03896,0 0.03896,0.1169 0,0.11689 -0.03896,0.11689 -0.681895,0 -1.071549,-0.0195 l -1.539133,-0.0195 -1.500168,0.0195 q -0.389654,0.0195 -1.091031,0.0195 z m 12.429963,0 q -0.03897,0 -0.03897,-0.11689 0,-0.1169 0.03897,-0.1169 0.72086,0 0.954652,-0.253275 0.233792,-0.272758 0.233792,-1.091032 v -3.000336 q 0,-1.129996 -0.428619,-1.675512 -0.428619,-0.545515 -1.305341,-0.545515 -0.681895,0 -1.383272,0.428619 -0.701377,0.409137 -1.168962,1.091031 l -0.05845,-0.29224 q 0.818274,-1.091031 1.636547,-1.617064 0.837756,-0.545516 1.772926,-0.545516 1.052066,0 1.656029,0.642929 0.603964,0.623447 0.603964,1.753443 v 3.760161 q 0,0.564999 0.07793,0.857239 0.09741,0.272758 0.331206,0.389658 0.253275,0.0974 0.759825,0.0974 0.05845,0 0.05845,0.1169 0,0.11689 -0.05845,0.11689 -0.487068,0 -0.759825,-0.0195 l -1.071549,-0.0195 -1.091031,0.0195 q -0.272758,0.0195 -0.759825,0.0195 z m 8.436017,0.23379 q -1.149479,0 -1.987235,-0.50655 -0.837756,-0.526029 -1.266376,-1.383267 -0.428619,-0.876722 -0.428619,-1.87034 0,-1.149479 0.545516,-2.104131 0.564998,-0.954653 1.51965,-1.500168 0.954653,-0.564999 2.123615,-0.564999 1.149479,0 1.753443,0.584481 0.603963,0.564999 0.603963,1.636547 0,0.545516 -0.233792,0.545516 h -1.344306 q 0.07793,-1.149479 -0.311724,-1.753443 -0.370171,-0.623447 -1.129996,-0.623447 -0.954653,0 -1.500168,0.818274 -0.526033,0.798791 -0.526033,2.201545 0,1.714478 0.779308,2.727578 0.798791,1.0131 2.259993,1.0131 0.564998,0 0.974135,-0.136378 0.409137,-0.155862 0.954652,-0.467585 h 0.01948 q 0.05845,0 0.09741,0.07793 0.05845,0.05845 0.01948,0.116896 -0.701377,0.62345 -1.402754,0.91569 -0.701377,0.27275 -1.519651,0.27275 z m -2.649647,-5.435669 4.364125,-0.07793 v 0.350689 l -4.344642,0.01948 z m 13.228725,-6.526705 0.50655,0.03897 v 9.468592 q 0,1.013101 0.370171,1.500168 0.389654,0.487068 1.168962,0.487068 0.03897,0 0.03897,0.1169 0,0.11689 -0.03897,0.11689 -0.50655,0 -0.779308,-0.0195 l -0.993618,-0.0195 -1.052065,0.0195 q -0.292241,0.0195 -0.857239,0.0195 -0.03897,0 -0.03897,-0.11689 0,-0.1169 0.03897,-0.1169 0.837756,0 1.22741,-0.487068 0.409137,-0.487067 0.409137,-1.500168 z m 9.858246,11.981864 q 0,0.039 -0.09741,0.0584 -0.07793,0.0195 -0.116897,-0.0195 L 62.712655,89.856746 q -0.642929,-0.759826 -1.149479,-1.052066 -0.50655,-0.311723 -1.0131,-0.311723 -0.03897,0 -0.03897,-0.116896 0,-0.116897 0.03897,-0.116897 l 0.759825,0.01948 q 0.233792,0.01948 0.662412,0.01948 l 0.993618,-0.01948 q 0.194827,-0.01948 0.448102,-0.01948 0.155861,0 0.233792,0.07793 0.07793,0.07793 0.233793,0.311723 l 0.467584,0.623447 7.598253,9.156869 z m 0,0 -0.487067,-0.60397 v -9.585485 q 0,-1.013101 -0.370172,-1.500168 -0.370171,-0.50655 -1.149479,-0.50655 -0.03897,0 -0.03897,-0.116896 0,-0.116897 0.03897,-0.116897 l 0.779308,0.01948 q 0.584481,0.03896 0.993618,0.03896 0.350688,0 1.0131,-0.03896 l 0.818273,-0.01948 q 0.03897,0 0.03897,0.116897 0,0.116896 -0.03897,0.116896 -1.597581,0 -1.597581,2.006718 z m 6.526696,0 q -1.149479,0 -2.026201,-0.54552 -0.876721,-0.564997 -1.363789,-1.500166 -0.467585,-0.954653 -0.467585,-2.065167 0,-1.266375 0.623447,-2.143097 0.623446,-0.896204 1.597581,-1.324823 0.974135,-0.448102 1.987236,-0.448102 1.149479,0 2.0262,0.564998 0.876722,0.564998 1.344307,1.500168 0.467585,0.915687 0.467585,1.94827 0,1.188445 -0.584482,2.104132 -0.564998,0.915686 -1.51965,1.422237 -0.954652,0.48707 -2.084649,0.48707 z m 0.564998,-0.37017 q 0.974135,0 1.500168,-0.759829 0.526033,-0.759826 0.526033,-2.298959 0,-1.266376 -0.389654,-2.221028 -0.370171,-0.954652 -1.032583,-1.461202 -0.662412,-0.526033 -1.480685,-0.526033 -0.954653,0 -1.480686,0.740342 -0.50655,0.72086 -0.50655,2.143097 0,1.22741 0.370172,2.240511 0.370171,0.993618 1.0131,1.578099 0.662412,0.565002 1.480685,0.565002 z m 14.904275,0.35068 q -0.798791,0 -1.324823,-0.37017 -0.526033,-0.389651 -0.526033,-1.285855 v -4.539469 q 0,-0.467585 -0.07793,-0.662412 -0.07793,-0.21431 -0.272758,-0.272758 -0.194827,-0.07793 -0.642929,-0.07793 -0.01948,0 -0.05845,-0.03897 -0.01948,-0.05845 -0.01948,-0.116896 0,-0.03897 0.01948,-0.07793 0.03896,-0.05845 0.05845,-0.05845 0.974135,0 1.519651,-0.584481 0.564998,-0.603964 0.564998,-1.675512 0,-1.246893 -0.681895,-1.909305 -0.662411,-0.681895 -1.694995,-0.681895 -1.110513,0 -1.889821,0.779308 -0.779308,0.759826 -0.779308,2.16258 0,0.584481 0.136378,1.032583 0.136379,0.42862 0.42862,0.876722 0.01948,0.07793 -0.116896,0.175344 -0.116897,0.07793 -0.136379,0 -0.311723,-0.50655 -0.448102,-0.974135 -0.136379,-0.487067 -0.136379,-1.071548 0,-1.052066 0.409136,-1.772926 0.42862,-0.72086 1.110514,-1.071549 0.681895,-0.370171 1.422237,-0.370171 1.168962,0 1.889822,0.740343 0.740343,0.740342 0.740343,1.94827 v 7.57877 q 0,1.539133 1.461203,1.539133 0.876721,0 1.597581,-0.545515 l 0.03896,-0.01948 q 0.05845,0 0.09741,0.07793 0.03897,0.07793 0,0.116896 -0.798791,0.623445 -1.422237,0.896205 -0.603964,0.25327 -1.266376,0.25327 z m 2.084649,-6.799458 q -1.285858,-0.29224 -3.019818,-0.29224 v -0.448103 q 1.207927,0 3.097749,-0.194827 0.03897,0 0.07793,0.136379 0.05845,0.136379 0.05845,0.311724 0,0.175344 -0.07793,0.350688 -0.05845,0.155862 -0.136379,0.136379 z m -9.916694,1.071549 q 1.052065,-1.266376 1.636547,-1.733961 0.603963,-0.467585 1.091031,-0.467585 0.448102,0 0.837756,0.272758 0.389654,0.253275 0.389654,0.623447 0,0.29224 -0.194827,0.50655 -0.194827,0.194827 -0.526033,0.194827 -0.21431,0 -0.350689,-0.07793 -0.136379,-0.09741 -0.350688,-0.272758 -0.194827,-0.175344 -0.331206,-0.253275 -0.116896,-0.07793 -0.331206,-0.07793 -0.272758,0 -0.623447,0.292241 -0.331205,0.272758 -1.129996,1.207927 z m -1.94827,5.494119 q -0.05845,0 -0.05845,-0.11689 0,-0.1169 0.05845,-0.1169 0.487067,0 0.72086,-0.0974 0.253275,-0.1169 0.331205,-0.389658 0.09741,-0.29224 0.09741,-0.857239 v -3.799126 q 0,-0.642929 -0.155862,-0.915687 -0.136379,-0.292241 -0.487067,-0.292241 -0.331206,0 -1.032583,0.272758 h -0.03897 q -0.05845,0 -0.09741,-0.09741 -0.01948,-0.09741 0.03897,-0.116897 l 2.396372,-1.149479 0.116897,-0.01948 q 0.194827,0 0.389654,0.467585 0.214309,0.448102 0.214309,1.188445 v 4.461538 q 0,0.564999 0.136379,0.857239 0.155862,0.272758 0.545516,0.389658 0.389654,0.0974 1.168962,0.0974 0.05845,0 0.05845,0.1169 0,0.11689 -0.05845,0.11689 -0.642929,0 -1.032583,-0.0195 l -1.480686,-0.0195 -1.091031,0.0195 q -0.272758,0.0195 -0.740342,0.0195 z m 13.267733,0 q -0.03896,0 -0.03896,-0.11689 0,-0.1169 0.03896,-0.1169 0.72086,0 0.93517,-0.253275 0.233792,-0.272758 0.233792,-1.091032 V 88.843645 q 0,-0.701377 -0.136378,-0.993617 -0.116897,-0.311724 -0.448103,-0.311724 -0.331205,0 -0.857238,0.253276 h -0.01948 q -0.07793,0 -0.116896,-0.09741 -0.03897,-0.09741 0.01948,-0.136379 l 2.610682,-1.246893 h 0.05845 q 0.07793,0 0.13638,0.05845 0.0779,0.05845 0.0779,0.136379 v 12.352032 q 0,0.818274 0.23379,1.091032 0.23379,0.253275 0.95465,0.253275 0.0585,0 0.0585,0.1169 0,0.11689 -0.0585,0.11689 -0.48706,0 -0.75982,-0.0195 l -1.071549,-0.0195 -1.110514,0.0195 q -0.272758,0.0195 -0.740343,0.0195 z m 5.240846,0 q -0.039,0 -0.039,-0.11689 0,-0.1169 0.039,-0.1169 0.72086,0 0.93517,-0.253275 0.23379,-0.272758 0.23379,-1.091032 v -3.000336 q 0,-1.129996 -0.42862,-1.675512 -0.40913,-0.545515 -1.28585,-0.545515 -0.6819,0 -1.38328,0.409136 -0.70137,0.409137 -1.168959,1.091032 l -0.09741,-0.233793 q 0.818272,-1.110514 1.656032,-1.656029 0.85724,-0.545516 1.79241,-0.545516 1.07154,0 1.65603,0.623446 0.58448,0.623447 0.58448,1.772926 v 3.760161 q 0,0.818274 0.23379,1.091032 0.23379,0.253275 0.95465,0.253275 0.0584,0 0.0584,0.1169 0,0.11689 -0.0584,0.11689 -0.48707,0 -0.75982,-0.0195 l -1.07155,-0.0195 -1.11052,0.0195 q -0.27275,0.0195 -0.74034,0.0195 z m 8.43602,0.23379 q -1.14948,0 -1.98723,-0.50655 -0.83776,-0.526029 -1.26638,-1.383267 -0.42862,-0.876722 -0.42862,-1.87034 0,-1.149479 0.54552,-2.104131 0.56499,-0.954653 1.51965,-1.500168 0.95465,-0.564999 2.12361,-0.564999 1.14948,0 1.75344,0.584481 0.60397,0.564999 0.60397,1.636547 0,0.545516 -0.23379,0.545516 h -1.34431 q 0.0779,-1.149479 -0.31172,-1.753443 -0.37017,-0.623447 -1.13,-0.623447 -0.95465,0 -1.50017,0.818274 -0.52603,0.798791 -0.52603,2.201545 0,1.714478 0.77931,2.727578 0.79879,1.0131 2.25999,1.0131 0.565,0 0.97414,-0.136378 0.40913,-0.155862 0.95465,-0.467585 h 0.0195 q 0.0584,0 0.0974,0.07793 0.0585,0.05845 0.0195,0.116896 -0.70138,0.62345 -1.40276,0.91569 -0.70138,0.27275 -1.51965,0.27275 z m -2.64965,-5.435669 4.36413,-0.07793 v 0.350689 l -4.34464,0.01948 z m 9.07893,-0.29224 q 1.05207,-1.266376 1.63655,-1.733961 0.60396,-0.467585 1.09103,-0.467585 0.4481,0 0.83775,0.272758 0.38966,0.253275 0.38966,0.623447 0,0.29224 -0.19483,0.50655 -0.19483,0.194827 -0.52603,0.194827 -0.21431,0 -0.35069,-0.07793 -0.13638,-0.09741 -0.35069,-0.272758 -0.19483,-0.175344 -0.3312,-0.253275 -0.1169,-0.07793 -0.33121,-0.07793 -0.27276,0 -0.62345,0.292241 -0.3312,0.272758 -1.12999,1.207927 z m -1.94827,5.494119 q -0.0584,0 -0.0584,-0.11689 0,-0.1169 0.0584,-0.1169 0.48707,0 0.72086,-0.0974 0.25328,-0.1169 0.33121,-0.389658 0.0974,-0.29224 0.0974,-0.857239 v -3.799126 q 0,-0.642929 -0.15586,-0.915687 -0.13638,-0.292241 -0.48707,-0.292241 -0.33121,0 -1.03258,0.272758 h -0.039 q -0.0585,0 -0.0974,-0.09741 -0.0195,-0.09741 0.039,-0.116897 l 2.39638,-1.149479 0.11689,-0.01948 q 0.19483,0 0.38966,0.467585 0.21431,0.448102 0.21431,1.188445 v 4.461538 q 0,0.564999 0.13637,0.857239 0.15587,0.272758 0.54552,0.389658 0.38965,0.0974 1.16896,0.0974 0.0585,0 0.0585,0.1169 0,0.11689 -0.0585,0.11689 -0.64293,0 -1.03258,-0.0195 l -1.48069,-0.0195 -1.09103,0.0195 q -0.27275,0.0195 -0.74034,0.0195 z m 12.42996,0 q -0.0584,0 -0.0584,-0.11689 0,-0.1169 0.0584,-0.1169 0.48706,0 0.72086,-0.0974 0.25327,-0.1169 0.3312,-0.389658 0.0974,-0.29224 0.0974,-0.857239 v -3.058784 q 0,-1.129996 -0.40914,-1.656029 -0.40914,-0.526033 -1.30534,-0.526033 -0.6819,0 -1.38327,0.409137 -0.6819,0.409136 -1.16897,1.091031 l -0.0779,-0.233793 q 1.63655,-2.221027 3.42896,-2.221027 1.07155,0 1.65603,0.642929 0.60396,0.623446 0.60396,1.753443 v 3.799126 q 0,0.564999 0.0779,0.857239 0.0974,0.272758 0.33121,0.389658 0.25327,0.0974 0.75982,0.0974 0.0584,0 0.0584,0.1169 0,0.11689 -0.0584,0.11689 -0.46758,0 -0.75982,-0.0195 l -1.07155,-0.0195 -1.07155,0.0195 q -0.29224,0.0195 -0.75982,0.0195 z m -5.24085,0 q -0.0584,0 -0.0584,-0.11689 0,-0.1169 0.0584,-0.1169 0.48707,0 0.72086,-0.0974 0.25328,-0.1169 0.33121,-0.389658 0.0974,-0.29224 0.0974,-0.857239 v -3.799126 q 0,-0.642929 -0.15586,-0.915687 -0.13638,-0.292241 -0.48707,-0.292241 -0.33121,0 -1.03258,0.272758 h -0.039 q -0.0585,0 -0.0974,-0.09741 -0.0195,-0.09741 0.039,-0.116897 l 2.39638,-1.149479 0.11689,-0.01948 q 0.19483,0 0.38966,0.467585 0.21431,0.448102 0.21431,1.188445 v 4.461538 q 0,0.564999 0.0779,0.857239 0.0974,0.272758 0.3312,0.389658 0.25328,0.0974 0.75983,0.0974 0.0584,0 0.0584,0.1169 0,0.11689 -0.0584,0.11689 -0.46759,0 -0.75983,-0.0195 l -1.07155,-0.0195 -1.09103,0.0195 q -0.27276,0.0195 -0.74034,0.0195 z m 16.85253,-9.994623 q 0,0.740342 0.37017,1.305341 0.37017,0.545515 0.8962,0.954652 0.52604,0.389654 1.46121,0.954652 0.97413,0.603964 1.53913,1.052066 0.58448,0.42862 0.99362,1.071549 0.40913,0.642929 0.40913,1.51965 0,0.954653 -0.50655,1.733961 -0.48706,0.759825 -1.42223,1.207932 -0.91569,0.42861 -2.1431,0.42861 -0.77931,0 -1.53913,-0.19482 -0.75983,-0.17535 -1.32483,-0.526035 -0.0974,-0.05845 -0.13638,-0.136379 -0.039,-0.07793 -0.039,-0.233793 l -0.19483,-2.786026 q -0.0195,-0.07793 0.0779,-0.09741 0.1169,-0.01948 0.13638,0.05845 0.46759,1.480685 1.30534,2.513268 0.83776,1.03258 2.18207,1.03258 0.91568,0 1.53913,-0.487064 0.62344,-0.506551 0.62344,-1.636547 0,-0.857239 -0.38965,-1.500168 -0.38965,-0.642929 -0.95465,-1.071549 -0.565,-0.448102 -1.50017,-1.0131 -0.91569,-0.584481 -1.4612,-0.993618 -0.52603,-0.428619 -0.89621,-1.032583 -0.37017,-0.623446 -0.37017,-1.44172 0,-0.993617 0.52604,-1.694995 0.54551,-0.701377 1.40275,-1.032583 0.87672,-0.350688 1.83137,-0.350688 1.28586,0 2.35741,0.448102 0.29224,0.136379 0.29224,0.350688 l 0.0974,2.435338 q 0,0.07793 -0.11689,0.09741 -0.0974,0 -0.1169,-0.07793 -0.21431,-1.052066 -0.91568,-1.987236 -0.6819,-0.935169 -1.96776,-0.935169 -0.97413,0 -1.51965,0.584481 -0.52603,0.584481 -0.52603,1.480685 z m 7.18913,9.994623 q -0.039,0 -0.039,-0.11689 0,-0.1169 0.039,-0.1169 0.72086,0 0.93517,-0.253275 0.23379,-0.272758 0.23379,-1.091032 V 88.843645 q 0,-0.701377 -0.13638,-0.993617 -0.1169,-0.311724 -0.4481,-0.311724 -0.33121,0 -0.85724,0.253276 h -0.0195 q -0.0779,0 -0.1169,-0.09741 -0.039,-0.09741 0.0195,-0.136379 l 2.61068,-1.246893 h 0.0584 q 0.0779,0 0.13638,0.05845 0.0779,0.05845 0.0779,0.136379 v 12.352032 q 0,0.818274 0.23379,1.091032 0.2338,0.253275 0.95466,0.253275 0.0584,0 0.0584,0.1169 0,0.11689 -0.0584,0.11689 -0.48707,0 -0.75983,-0.0195 l -1.07155,-0.0195 -1.11051,0.0195 q -0.27276,0.0195 -0.74034,0.0195 z m 5.24084,0 q -0.039,0 -0.039,-0.11689 0,-0.1169 0.039,-0.1169 0.72086,0 0.93517,-0.253275 0.23379,-0.272758 0.23379,-1.091032 v -3.000336 q 0,-1.129996 -0.42862,-1.675512 -0.40913,-0.545515 -1.28585,-0.545515 -0.6819,0 -1.38328,0.409136 -0.70137,0.409137 -1.16896,1.091032 l -0.0974,-0.233793 q 0.81827,-1.110514 1.65603,-1.656029 0.85724,-0.545516 1.79241,-0.545516 1.07155,0 1.65603,0.623446 0.58448,0.623447 0.58448,1.772926 v 3.760161 q 0,0.818274 0.23379,1.091032 0.23379,0.253275 0.95465,0.253275 0.0585,0 0.0585,0.1169 0,0.11689 -0.0585,0.11689 -0.48706,0 -0.75982,-0.0195 l -1.07155,-0.0195 -1.11052,0.0195 q -0.27275,0.0195 -0.74034,0.0195 z m 10.22844,0.1169 q -0.0779,0.039 -0.17535,0.039 -0.31172,0 -0.56499,-0.4481 -0.25328,-0.467583 -0.25328,-1.246891 v -3.565334 q 0,-1.168962 -0.29224,-1.694995 -0.27276,-0.545516 -0.83776,-0.545516 -0.66241,0 -0.97413,0.448102 -0.31172,0.448102 -0.40914,1.032583 -0.0974,0.896204 -0.83775,0.896204 -0.37017,0 -0.565,-0.175344 -0.17535,-0.175344 -0.17535,-0.448102 0,-0.50655 0.62345,-0.993618 0.62345,-0.50655 1.50017,-0.818273 0.8962,-0.311723 1.5781,-0.311723 0.81827,0 1.26637,0.526033 0.4481,0.526033 0.4481,1.500168 v 3.584816 q 0,1.266376 0.74035,1.266376 0.37017,0 0.85724,-0.21431 h 0.0195 q 0.0779,0 0.0974,0.09741 0.039,0.07793 -0.039,0.116896 z m -3.58482,0.0195 q -0.75982,0 -1.16896,-0.37017 -0.40914,-0.389654 -0.40914,-0.993618 0,-0.662412 0.50655,-1.052066 0.50655,-0.389654 1.63655,-0.818273 l 2.22103,-0.818274 0.0584,0.253275 -1.77293,0.72086 q -0.50655,0.194827 -0.79879,0.487068 -0.29224,0.272758 -0.29224,0.701377 0,0.467585 0.29224,0.779308 0.31172,0.292241 0.77931,0.292241 0.37017,0 0.83775,-0.272758 l 1.14948,-0.72086 0.039,0.272758 -1.42224,0.935169 q -0.4481,0.331203 -0.83775,0.467583 -0.38966,0.13638 -0.81828,0.13638 z m 10.13101,0.0974 q -1.26637,0 -2.1431,-0.54551 -0.85723,-0.564999 -1.28585,-1.441721 -0.40914,-0.876721 -0.40914,-1.850857 0,-1.246892 0.64293,-2.162579 0.64293,-0.93517 1.65603,-1.422237 1.0131,-0.506551 2.06516,-0.506551 0.87673,0 1.59759,0.370172 0.72086,0.350688 0.72086,0.896204 0,0.29224 -0.21431,0.50655 -0.21431,0.21431 -0.58449,0.21431 -0.62344,0 -0.97413,-0.759825 -0.21431,-0.448103 -0.46759,-0.64293 -0.25327,-0.194827 -0.75982,-0.194827 -1.0131,0 -1.59758,0.857239 -0.58448,0.837756 -0.58448,2.240511 0,1.617064 0.77931,2.649647 0.79879,1.032583 2.41585,1.032583 1.07155,0 1.94827,-0.603964 h 0.039 q 0.0584,0 0.0974,0.05845 0.0585,0.05845 0,0.09741 -0.6819,0.623443 -1.38327,0.915683 -0.70138,0.29224 -1.55862,0.29224 z m 4.03293,-0.23379 q -0.039,0 -0.039,-0.11689 0,-0.1169 0.039,-0.1169 0.72086,0 0.93517,-0.253275 0.23379,-0.272758 0.23379,-1.091032 V 88.843645 q 0,-0.701377 -0.13638,-0.993617 -0.1169,-0.311724 -0.4481,-0.311724 -0.33121,0 -0.85724,0.253276 h -0.0195 q -0.0779,0 -0.1169,-0.09741 -0.039,-0.09741 0.0195,-0.136379 l 2.57172,-1.22741 0.0974,-0.01948 q 0.0779,0 0.13638,0.05845 0.0779,0.05845 0.0779,0.136379 v 12.352032 q 0,0.818274 0.23379,1.091032 0.2338,0.253275 0.95466,0.253275 0.0584,0 0.0584,0.1169 0,0.11689 -0.0584,0.11689 -0.48707,0 -0.75983,-0.0195 l -1.07155,-0.0195 -1.11051,0.0195 q -0.27276,0.0195 -0.74034,0.0195 z m 4.90964,0 q -0.0584,0 -0.0584,-0.11689 0,-0.1169 0.0584,-0.1169 0.8962,0 0.8962,-0.389654 0,-0.175345 -0.17534,-0.409137 l -2.43534,-3.253611 1.03258,-0.779308 2.5912,3.487403 q 0.52603,0.72086 1.07155,1.032583 0.54552,0.311724 1.14948,0.311724 0.039,0 0.039,0.1169 0,0.11689 -0.039,0.11689 -0.48707,0 -0.75983,-0.0195 l -1.09103,-0.0195 -1.42223,0.0195 q -0.31173,0.0195 -0.85724,0.0195 z m -2.96137,-3.389988 2.9224,-2.493785 q 0.58448,-0.506551 0.58448,-0.876722 0,-0.233792 -0.27276,-0.370171 -0.25327,-0.155862 -0.74034,-0.155862 -0.039,0 -0.039,-0.116896 0,-0.116896 0.039,-0.116896 0.54552,0 0.85724,0.01948 l 1.44172,0.01948 1.32482,-0.01948 q 0.27276,-0.01948 0.74035,-0.01948 0.039,0 0.039,0.116896 0,0.116896 -0.039,0.116896 -0.75983,0 -1.71448,0.370171 -0.93517,0.370172 -1.81189,1.110514 l -3.23413,2.649648 z"
       id="text8"
       aria-label="The Northern Shack" /></g></svg>
